<?xml version="1.0" encoding="utf-8"?>
<!-- Generator: Adobe Illustrator 17.0.0, SVG Export Plug-In . SVG Version: 6.00 Build 0)  -->
<!DOCTYPE svg PUBLIC "-//W3C//DTD SVG 1.1//EN" "http://www.w3.org/Graphics/SVG/1.1/DTD/svg11.dtd">
<svg version="1.1" xmlns="http://www.w3.org/2000/svg" xmlns:xlink="http://www.w3.org/1999/xlink" x="0px" y="0px"
	 width="45.375px" height="20.375px" viewBox="0 0 45.375 20.375" enable-background="new 0 0 45.375 20.375" xml:space="preserve">
<g id="Layer_1">
	<g>
		<path fill="#533C1C" d="M34.349,8.62c-2.931,0-5.308,2.376-5.308,5.308c0,2.931,2.376,5.308,5.308,5.308
			c2.931,0,5.308-2.376,5.308-5.308C39.656,10.996,37.28,8.62,34.349,8.62z M34.349,18.449c-2.515,0-4.553-2.039-4.553-4.554
			c0-2.515,2.038-4.553,4.553-4.553c2.515,0,4.554,2.039,4.554,4.553C38.902,16.41,36.864,18.449,34.349,18.449z"/>
		<path fill="#533C1C" d="M7.512,6.361c-3.676,0-6.656,2.98-6.656,6.656c0,3.676,2.98,6.656,6.656,6.656
			c3.676,0,6.656-2.98,6.656-6.656C14.169,9.341,11.189,6.361,7.512,6.361z M7.512,18.977c-3.203,0-5.8-2.597-5.8-5.801
			c0-3.203,2.597-5.8,5.8-5.8c3.204,0,5.8,2.597,5.8,5.8C13.313,16.38,10.716,18.977,7.512,18.977z"/>
		<path fill="#533C1C" d="M7.512,6.738c-3.532,0-6.395,2.863-6.395,6.395c0,3.532,2.863,6.396,6.395,6.396
			c3.532,0,6.396-2.863,6.396-6.396C13.908,9.601,11.045,6.738,7.512,6.738z M7.512,18.582c-3.03,0-5.486-2.457-5.486-5.487
			c0-3.03,2.456-5.486,5.486-5.486c3.031,0,5.487,2.457,5.487,5.486C12.999,16.125,10.543,18.582,7.512,18.582z"/>
		<path fill="#533C1C" d="M15.16,17.098c0.115,0.013,0.163-0.108,0.163-0.108l0.954-3.128l0,0l0.001-0.001
			c0.029-0.093-0.022-0.191-0.114-0.22c-0.092-0.03-0.191,0.022-0.22,0.114c-0.001,0.002,0,0.003-0.001,0.005l-0.002-0.001
			l-0.954,3.129C14.986,16.887,14.944,17.074,15.16,17.098z"/>
		<rect x="14.376" y="16.754" fill="#533C1C" width="1.463" height="0.576"/>
		<circle fill="#533C1C" cx="34.349" cy="14.019" r="0.974"/>
		<path fill="#533C1C" d="M7.47,12.591l5.511-8.193l0.192,0.719l-5.015,7.512l7.534,1.058l0.278,0.562l-0.01-0.014l0.001,0.053
			L7.91,13.234c-0.075,0.114-0.204,0.189-0.351,0.189c-0.233,0-0.421-0.189-0.421-0.421C7.138,12.8,7.28,12.631,7.47,12.591z"/>
		<polygon fill="#533C1C" points="16.119,14.076 15.528,14.195 12.495,2.87 13.086,2.751 		"/>
		<path fill="#533C1C" d="M15.634,12.262c-0.875,0.224-1.403,1.115-1.179,1.99c0.224,0.875,1.115,1.404,1.991,1.179
			c0.875-0.224,1.403-1.115,1.179-1.99C17.4,12.566,16.509,12.038,15.634,12.262z M17.168,13.395l-0.982,0.251l-0.258-1.01
			C16.461,12.587,16.968,12.895,17.168,13.395z M15.641,12.699l0.261,1.02l-1.07,0.274C14.764,13.428,15.099,12.886,15.641,12.699z
			 M14.911,14.298l1.07-0.273l0.261,1.021C15.676,15.142,15.122,14.827,14.911,14.298z M16.523,14.962l-0.259-1.01l0.982-0.252
			C17.312,14.236,17.015,14.75,16.523,14.962z"/>
		<path fill="#533C1C" d="M14.465,1.777c0,0-1.045,0.084-2.108,0c-1.063-0.083-1.532,0.237-1.532,0.668
			c0,0.432,0.775,0.891,1.91,0.613c1.136-0.278,1.55-0.583,2.181-0.605c0.631-0.022,1.37-0.37,0.721-0.607
			C14.987,1.61,15.115,1.746,14.465,1.777z"/>
		<rect x="16.346" y="10.292" fill="#533C1C" width="1.463" height="0.576"/>
		<path fill="#533C1C" d="M17.025,10.524c-0.115-0.013-0.163,0.108-0.163,0.108l-0.954,3.128h0l-0.001,0.001
			c-0.029,0.093,0.022,0.191,0.114,0.22c0.093,0.03,0.191-0.022,0.221-0.114c0.001-0.002,0-0.003,0.001-0.005l0.002,0.001
			l0.954-3.129C17.199,10.734,17.241,10.548,17.025,10.524z"/>
		<rect x="15.528" y="13.448" fill="#533C1C" width="16.647" height="0.648"/>
		<g>
			<line fill="none" stroke="#533C1C" stroke-width="0.25" stroke-miterlimit="10" x1="4.669" y1="7.52" x2="10.797" y2="18.744"/>
			
				<line fill="none" stroke="#533C1C" stroke-width="0.25" stroke-miterlimit="10" x1="2.121" y1="16.196" x2="13.345" y2="10.068"/>
			<line fill="none" stroke="#533C1C" stroke-width="0.25" stroke-miterlimit="10" x1="1.598" y1="11.33" x2="13.868" y2="14.934"/>
			<line fill="none" stroke="#533C1C" stroke-width="0.25" stroke-miterlimit="10" x1="5.931" y1="19.267" x2="9.535" y2="6.997"/>
		</g>
		<g>
			
				<line fill="none" stroke="#533C1C" stroke-width="0.25" stroke-miterlimit="10" x1="30.144" y1="12.126" x2="38.622" y2="15.873"/>
			<line fill="none" stroke="#533C1C" stroke-width="0.25" stroke-miterlimit="10" x1="32.509" y1="18.238" x2="36.256" y2="9.76"/>
			
				<line fill="none" stroke="#533C1C" stroke-width="0.25" stroke-miterlimit="10" x1="30.061" y1="15.672" x2="38.705" y2="12.327"/>
			<line fill="none" stroke="#533C1C" stroke-width="0.25" stroke-miterlimit="10" x1="36.056" y1="18.321" x2="32.71" y2="9.677"/>
		</g>
		<rect x="29.085" y="6.738" fill="#FFFFFF" width="10.571" height="7.19"/>
		<circle fill="#533C1C" cx="39.857" cy="5.426" r="1.86"/>
		<circle fill="#533C1C" cx="36.137" cy="3.575" r="1.86"/>
		<circle fill="#533C1C" cx="32.864" cy="2.437" r="1.86"/>
		<circle fill="#533C1C" cx="29.436" cy="3.565" r="1.86"/>
		<g>
			<path fill="#533C1C" d="M29.426,13.662l-4.749-8.908L21.87,4.188l-0.021-0.103l3.087,0.707l0.038-0.46
				c0.012-0.147,0.173-0.275,0.285-0.344l5.195,0.995V4.95l13.55,2.239l-4.249,6.473H29.426z"/>
			<path fill="#533C1C" d="M25.368,4.416l4.537,0.869l0.95,0.161V5.421l12.478,2.063l-3.793,5.779l-3.956,0l-5.918,0l-4.354-8.168
				L25.368,4.416 M21.333,3.557l0.199,0.97l2.882,0.582l4.772,8.953l6.398,0v0h4.387l4.704-7.167L30.056,4.478V4.5l-4.857-0.93
				c0,0-0.583,0.243-0.623,0.729L21.333,3.557L21.333,3.557z"/>
		</g>
	</g>
</g>
<g id="Layer_2">
	<path fill-rule="evenodd" clip-rule="evenodd" fill="#533C1C" d="M22.807-23.796c-2.758,0-1.607-0.17-4.463-0.915
		c-1.402-0.365-10.055-1.383-10.323-0.319c0,0.001-0.094,1.613-0.017,1.724c0.063,0.09,0.476,0.343,0.556,0.881
		c0.662,4.476,1.18,7.132,6.7,7.191c1.423,0.015,2.297-0.196,3.445-1.067c0.957-0.726,1.854-2.023,2.36-3.114
		c0.305-0.659,0.772-2.767,2.142-2.225c0.986,0.389,0.951,1.597,1.833,3.041c0.536,0.878,1.096,1.68,1.913,2.299
		c1.547,1.173,2.87,1.18,4.849,0.981c3.967-0.4,4.914-2.468,5.229-6.087c0.062-0.721-0.044-1.194,0.39-1.679
		c0.198-0.221,0.266-0.147,0.27-0.429c0.003-0.236,0.018-1.527-0.14-1.621c-2.326-1.389-9.426,0.127-11.77,0.89
		C24.161-23.717,24.651-23.796,22.807-23.796z"/>
</g>
</svg>
