<?xml version="1.0" encoding="utf-8"?>
<!-- Generator: Adobe Illustrator 18.0.0, SVG Export Plug-In . SVG Version: 6.00 Build 0)  -->
<!DOCTYPE svg PUBLIC "-//W3C//DTD SVG 1.1//EN" "http://www.w3.org/Graphics/SVG/1.1/DTD/svg11.dtd">
<svg version="1.1" id="Layer_1" xmlns="http://www.w3.org/2000/svg" xmlns:xlink="http://www.w3.org/1999/xlink" x="0px" y="0px"
	 viewBox="0 0 198 51.5" enable-background="new 0 0 198 51.5" xml:space="preserve">
<g>
	<g>
		<path fill="#422D11" d="M4,41.1c0.2,0.5,0.6,1,0.9,1.5c0.2,0.3,0.4,0.5,0.7,0.7c0.2,0.1,0.3,0.2,0.4,0.3c1,0.8,2.1,1.2,3.4,1.4
			c0.6,0.1,1.1,0.1,1.7,0c1.7-0.1,3.3-0.5,4.9-1.1c0.6-0.2,1.1-0.4,1.7-0.6c0.2,0,0.3-0.1,0.5-0.1c0.8-0.3,1.6-0.6,2.5-0.9
			c0.7-0.3,1.5-0.5,2.2-0.8c0.8-0.3,1.6-0.6,2.4-0.9c0.3-0.1,0.6-0.2,0.9-0.3c0.8-0.2,1.5-0.6,2.2-1c0.5-0.3,1-0.7,1.4-1.2
			c-0.1-0.1-0.1-0.3-0.2-0.4c-0.1-0.2-0.3-0.3-0.5-0.3c-0.3,0-0.6,0-0.9,0.1c-0.4,0.1-0.8,0.2-1.2,0.3c-0.1,0-0.3,0.1-0.4,0.1
			c-0.3,0-0.6,0.1-0.9,0.1c-0.5,0.1-1.1,0.3-1.6,0.5c-0.6,0.2-1.3,0.4-1.9,0.6c-0.9,0.3-1.8,0.6-2.7,0.9c-1.3,0.4-2.6,0.9-4,1.4
			c-0.6,0.2-1.2,0.4-1.9,0.6c-1.1,0.3-2.2,0.4-3.3,0.4c-1,0-1.9-0.2-2.7-0.7c-0.5-0.3-0.8-0.7-0.9-1.2c-0.1-0.5-0.2-1-0.2-1.6
			c0-0.3,0.1-0.5,0.1-0.8c0-0.6,0.1-1.1,0.3-1.6c0-0.1,0.1-0.3,0.1-0.4c0.2-0.9,0.5-1.8,0.8-2.6c0.2-0.6,0.5-1.1,0.7-1.7
			c0.3-0.6,0.6-1.3,0.9-1.9c0.1-0.3,0.3-0.6,0.4-0.8c0.2-0.4,0.5-0.8,0.7-1.2c0.3-0.5,0.6-1.1,0.9-1.6c0.4-0.5,0.7-1,1.1-1.6
			c0.5-0.9,1.2-1.7,1.9-2.4c0.1-0.2,0.3-0.3,0.4-0.5c0.5-0.7,1.1-1.2,1.7-1.7c1.1-0.9,1.1-0.9,3-2.1c0,0,0.1-0.1,0.1-0.1
			c0.2-0.1,0.3-0.2,0.5-0.3c0.2-0.1,0.3-0.2,0.5-0.3c0.7-0.4,1.5-0.8,2.3-1c0.3-0.1,0.6-0.1,0.9-0.2c1-0.2,1.9-0.1,2.8,0.1
			c0.6,0.1,1.1,0.4,1.5,0.9c0.1,0.1,0.2,0.2,0.3,0.3c0.2,0.3,0.5,0.3,0.7,0.4c0,0,0.1,0,0.1,0c0.1-0.1,0.3-0.2,0.4-0.4
			c0.3-0.6,0.2-1.2-0.1-1.8c-0.1-0.1-0.2-0.2-0.3-0.3c-0.5-0.3-1-0.7-1.6-0.9c-0.2-0.1-0.4-0.2-0.7-0.2c-0.7-0.1-1.4-0.2-2-0.2
			c-0.2,0-0.5,0-0.7,0c-0.5,0.1-0.9,0.2-1.4,0.2c-1.3,0.1-2.6,0.4-3.8,0.9c-0.3,0.1-0.6,0.2-0.9,0.4c-0.3,0.2-0.6,0.3-0.9,0.5
			c-0.7,0.4-1.4,0.8-2,1.3c-0.8,0.7-1.6,1.4-2.3,2.1c-0.5,0.6-1.1,1.2-1.6,1.8c-0.5,0.6-1,1.3-1.5,2c-0.4,0.6-0.8,1.1-1.2,1.7
			c-0.6,0.9-1.1,1.8-1.6,2.7c-0.3,0.4-0.5,0.9-0.7,1.3c-0.2,0.5-0.4,0.9-0.7,1.4c-0.2,0.5-0.5,1-0.7,1.6c-0.3,0.7-0.5,1.4-0.9,2.1
			c-0.1,0.2-0.1,0.3-0.2,0.5C4.1,34.8,4.1,35,4,35.2c-0.2,0.7-0.3,1.4-0.4,2.2c-0.1,0.8-0.1,1.7,0,2.5C3.7,40.3,3.8,40.7,4,41.1z"/>
		<path fill="#422D11" d="M10.4,45.8L10.4,45.8c-0.4,0-0.7,0-1.1-0.1c-1.5-0.2-2.7-0.7-3.8-1.5C5.4,44.1,5.3,44,5.2,44l-0.1-0.1
			c-0.3-0.2-0.6-0.6-0.9-0.9c-0.3-0.5-0.7-1-1-1.6c-0.2-0.5-0.4-1-0.4-1.4c-0.1-1-0.2-1.9,0-2.7l0-0.2c0.1-0.7,0.2-1.4,0.4-2.1
			c0-0.1,0-0.2,0.1-0.3c0-0.1,0-0.2,0.1-0.3c0.1-0.2,0.1-0.4,0.2-0.6c0.3-0.6,0.5-1.2,0.7-1.8l0.1-0.3c0.2-0.5,0.4-0.9,0.6-1.4
			L5.2,30c0.1-0.2,0.2-0.5,0.3-0.7c0.1-0.2,0.2-0.4,0.3-0.7c0.2-0.4,0.4-0.9,0.7-1.4L7,26.4c0.4-0.6,0.8-1.3,1.2-1.9
			c0.3-0.5,0.7-1.1,1.2-1.7l0.3-0.4c0.4-0.5,0.8-1.1,1.2-1.6c0.5-0.7,1.1-1.3,1.6-1.8c0.7-0.7,1.5-1.5,2.4-2.2
			c0.6-0.5,1.2-0.9,1.9-1.2l0.2-0.1c0.2-0.1,0.4-0.2,0.6-0.3c0.1-0.1,0.2-0.1,0.4-0.2c0.2-0.1,0.4-0.2,0.6-0.3
			c0.1,0,0.2-0.1,0.3-0.1c1.2-0.5,2.5-0.8,4.1-1c0.4,0,0.9-0.1,1.3-0.2c0.3-0.1,0.6-0.1,1,0c0.4,0,0.8,0.1,1.2,0.1l0.8,0.1
			c0.4,0,0.7,0.2,0.9,0.3c0.4,0.2,0.8,0.5,1.2,0.7l0.4,0.3c0.2,0.1,0.4,0.4,0.5,0.5c0.5,0.8,0.6,1.7,0.2,2.5
			c-0.1,0.3-0.3,0.4-0.5,0.6l-0.3,0.3l-0.4,0c-0.1,0-0.2,0-0.4-0.1l-0.1-0.1c-0.3-0.1-0.7-0.3-0.9-0.7c0,0,0,0-0.1-0.1
			c-0.1-0.1-0.2-0.2-0.2-0.2c-0.3-0.3-0.6-0.5-1.1-0.6c-0.9-0.2-1.7-0.2-2.5-0.1c-0.1,0-0.2,0-0.4,0.1c-0.2,0-0.3,0.1-0.5,0.1
			c-0.8,0.2-1.5,0.5-2.1,0.9c-0.2,0.1-0.4,0.2-0.5,0.3c-0.2,0.1-0.3,0.1-0.4,0.2c-0.1,0.1-0.1,0.1-0.2,0.2c-1.9,1.2-1.9,1.2-2.9,2
			c-0.7,0.5-1.2,1.1-1.6,1.7c-0.1,0.2-0.3,0.3-0.4,0.5c-0.8,0.8-1.4,1.6-1.9,2.4c-0.3,0.5-0.6,1-1,1.5L12,26.6
			c-0.4,0.5-0.6,1-0.9,1.5c-0.1,0.3-0.3,0.5-0.4,0.7c-0.1,0.1-0.2,0.3-0.3,0.4c-0.1,0.3-0.3,0.5-0.4,0.8l0,0.1
			c-0.3,0.6-0.6,1.2-0.9,1.8c-0.2,0.5-0.5,1.1-0.7,1.6c-0.3,0.7-0.5,1.5-0.8,2.5l0,0.1c0,0.1,0,0.2-0.1,0.3c-0.2,0.5-0.2,1-0.2,1.4
			c0,0.2,0,0.4,0,0.5c0,0.1,0,0.2,0,0.3c0,0.4,0,0.8,0.2,1.4C7.5,40.5,7.7,40.8,8,41c0.6,0.4,1.3,0.6,2.3,0.6l0.1,0
			c1,0,1.9-0.1,3-0.4c0.6-0.2,1.3-0.4,1.8-0.6c0.4-0.2,0.9-0.3,1.3-0.5c0.9-0.3,1.8-0.6,2.7-0.9c0.7-0.2,1.4-0.4,2-0.7l0.6-0.2
			c0.3-0.1,0.6-0.2,0.9-0.3s0.6-0.2,0.9-0.3c0.5-0.2,1.1-0.3,1.6-0.5l0.1,0c0.3-0.1,0.6-0.2,1-0.1l0.2,0c0.4-0.1,0.8-0.2,1.2-0.3
			c0.3-0.1,0.5-0.1,0.7-0.1c0.1,0,0.2,0,0.3,0l0.1,0c0.4,0,0.8,0.2,1.1,0.6c0.1,0.1,0.2,0.3,0.2,0.4l0.3,0.5l-0.3,0.4
			c-0.4,0.6-0.9,1-1.7,1.4c-0.9,0.5-1.6,0.9-2.4,1.1c-0.2,0-0.3,0.1-0.5,0.2c-0.1,0.1-0.3,0.1-0.4,0.2L25,41.7
			c-0.6,0.2-1.2,0.5-1.9,0.7c-0.5,0.2-1.1,0.4-1.6,0.5L18.5,44c-0.2,0.1-0.3,0.1-0.5,0.2c-0.5,0.1-1,0.3-1.7,0.5
			c-1.7,0.6-3.5,1-5.2,1.1C10.9,45.8,10.7,45.8,10.4,45.8z M24.8,14.7c-0.1,0-0.2,0-0.2,0c-0.5,0.1-1.1,0.2-1.5,0.2
			c-1.4,0.1-2.6,0.4-3.6,0.9c-0.1,0.1-0.3,0.1-0.4,0.2c-0.2,0.1-0.3,0.1-0.5,0.2c-0.1,0.1-0.3,0.1-0.4,0.2c-0.2,0.1-0.3,0.2-0.5,0.2
			l-0.2,0.1c-0.6,0.4-1.2,0.7-1.7,1.1c-0.9,0.7-1.6,1.4-2.3,2.1c-0.5,0.5-1,1.1-1.5,1.7c-0.4,0.5-0.8,1-1.1,1.5l-0.3,0.4
			c-0.4,0.6-0.8,1.2-1.1,1.7c-0.4,0.6-0.8,1.3-1.1,1.9L7.9,28c-0.3,0.4-0.5,0.9-0.7,1.3C7.1,29.5,7,29.7,6.9,30
			c-0.1,0.2-0.2,0.4-0.3,0.7l-0.1,0.3c-0.2,0.4-0.4,0.8-0.6,1.3l-0.1,0.3c-0.2,0.6-0.5,1.3-0.8,1.9c-0.1,0.1-0.1,0.3-0.1,0.4
			c0,0.1,0,0.1,0,0.2c0,0.1-0.1,0.3-0.1,0.4c-0.2,0.6-0.3,1.2-0.4,1.8l0,0.2c-0.1,0.7-0.1,1.4,0,2.3c0,0.3,0.1,0.6,0.3,1
			c0.2,0.5,0.5,0.9,0.8,1.4c0.2,0.2,0.3,0.4,0.5,0.6l0.1,0.1c0.1,0.1,0.3,0.2,0.4,0.3c0.8,0.7,1.8,1.1,3,1.2c0.5,0.1,1,0.1,1.5,0
			c1.5-0.1,3.1-0.4,4.7-1c0.7-0.2,1.2-0.4,1.8-0.6c0.1,0,0.3-0.1,0.4-0.1l3.1-1.1c0.5-0.2,1.1-0.4,1.6-0.6c0.6-0.2,1.2-0.4,1.8-0.6
			l0.6-0.2c0.1,0,0.2-0.1,0.3-0.1c0.2-0.1,0.4-0.2,0.6-0.2c0.6-0.2,1.3-0.5,2.1-1c0.3-0.2,0.5-0.3,0.7-0.5c-0.1,0-0.3,0-0.4,0
			c-0.4,0.1-0.8,0.2-1.2,0.3c-0.2,0.1-0.3,0.1-0.5,0.1l-0.1,0c-0.2,0-0.3,0-0.5,0.1l-0.1,0c-0.5,0.1-1,0.3-1.5,0.5
			c-0.3,0.1-0.7,0.2-1,0.3c-0.3,0.1-0.6,0.2-0.9,0.3L21.8,40c-0.7,0.2-1.4,0.5-2.1,0.7c-0.9,0.3-1.7,0.6-2.6,0.9
			c-0.5,0.2-0.9,0.3-1.4,0.5c-0.6,0.2-1.3,0.4-1.9,0.6c-1.2,0.3-2.3,0.4-3.4,0.4l-0.1,0c-1.3,0-2.3-0.3-3.1-0.8
			c-0.7-0.4-1.1-1-1.2-1.7c-0.2-0.7-0.2-1.2-0.2-1.8c0-0.1,0-0.3,0-0.4c0-0.1,0-0.2,0-0.4c0-0.6,0.1-1.2,0.3-1.9c0-0.1,0-0.1,0-0.2
			l0-0.2c0.3-1.1,0.5-2,0.9-2.7c0.2-0.6,0.5-1.1,0.7-1.7c0.3-0.6,0.6-1.2,0.9-1.8l0-0.1c0.1-0.3,0.3-0.6,0.5-0.9
			c0.1-0.2,0.2-0.3,0.3-0.5c0.1-0.2,0.3-0.4,0.4-0.6c0.3-0.5,0.6-1.1,1-1.6l0.1-0.2c0.3-0.5,0.6-0.9,0.9-1.4c0.5-0.9,1.2-1.7,2-2.5
			l0.1-0.1c0.1-0.1,0.2-0.2,0.3-0.3c0.5-0.7,1.1-1.3,1.8-1.9c1.1-0.9,1.2-1,3.1-2.2c0.2-0.2,0.5-0.4,0.7-0.5
			c0.2-0.1,0.3-0.2,0.4-0.2c0.8-0.5,1.6-0.8,2.5-1c0.2,0,0.4-0.1,0.6-0.1l0.3-0.1c1-0.2,2-0.2,3.2,0.1c0.8,0.2,1.5,0.6,2,1.2
			c0,0,0,0.1,0.1,0.1c0.1,0.1,0.2,0.2,0.3,0.3c0,0,0,0,0,0c0.1-0.3,0.1-0.6-0.1-0.9l-0.5-0.3c-0.4-0.2-0.7-0.5-1.1-0.6
			C27.4,15,27.2,15,27.1,15l-0.8-0.1c-0.4-0.1-0.8-0.1-1.2-0.1C25,14.7,24.9,14.7,24.8,14.7z"/>
	</g>
	<g>
		<path fill="#422D11" d="M171.4,27.5c-0.1,0-0.2,0-0.4,0c-0.2,0-0.4,0.1-0.5,0.1c-0.2,0-0.4,0.1-0.6,0.2c-0.8,0.5-1.6,1-2.5,1.2
			c-0.1,0-0.1,0-0.1,0.1c-0.5,0.3-1,0.6-1.5,0.8c-0.1,0.1-0.3,0.1-0.4,0.2c-0.4,0.2-0.8,0.4-1.2,0.6c-1.1,0.5-2.1,1.1-3.2,1.5
			c-0.7,0.3-1.4,0.5-2.1,0.8c-0.2,0.1-0.4,0.2-0.7,0.2c-0.6,0.2-1.2,0.3-1.9,0.4c-0.7,0.1-1.4-0.1-2-0.4c-0.7-0.3-1-0.9-1-1.7
			c0-0.8,0-1.6,0.2-2.4c0.2-0.8,0.3-1.7,0.7-2.4c0.2-0.4,0.4-0.8,0.5-1.2c0.3-0.9,0.7-1.7,1.2-2.6c0.1-0.2,0.2-0.3,0.2-0.5
			c0.3-0.6,0.6-1.1,0.9-1.7c0.3-0.4,0.5-0.9,0.8-1.3c0.4-0.7,0.8-1.4,1.4-2c0.1-0.1,0.2-0.2,0.3-0.4c0.2-0.3,0.4-0.5,0.7-0.8
			c0.1-0.1,0.2-0.2,0.3-0.3c0.4-0.6,1-1,1.5-1.4c0.2-0.2,0.4-0.4,0.7-0.6c0.6-0.4,1.2-0.8,1.8-1.2c0.2-0.1,0.5-0.3,0.7-0.4
			c0.3-0.1,0.5-0.1,0.7,0.2c0.2,0.2,0.4,0.4,0.6,0.6c0.2,0.2,0.5,0.2,0.7,0.3c0,0,0.1,0,0.1,0c0.1-0.1,0.3-0.2,0.4-0.3
			c0.1-0.1,0.2-0.3,0.2-0.5c-0.1-0.4-0.2-0.9-0.4-1.3c-0.2-0.5-0.6-0.8-1.1-0.9c-0.2,0-0.3-0.1-0.4-0.2c-0.2-0.1-0.4-0.2-0.6-0.2
			c-0.4,0-0.9,0.1-1.3,0.1c-0.8,0.1-1.3,0.2-2.2,0.7c-0.1,0.1-0.2,0.1-0.4,0.2c-0.3,0.2-0.5,0.3-0.8,0.5c-0.3,0.1-0.4,0.4-0.7,0.5
			c-0.3,0.1-0.5,0.4-0.7,0.6c-0.3,0.3-0.6,0.5-0.9,0.9c-0.1,0.1-0.2,0.2-0.3,0.3c-0.2,0.2-0.5,0.5-0.7,0.7c-0.1,0.4-0.5,0.7-0.7,1
			c0,0,0,0,0,0.1c-0.3,0.5-0.6,1-1,1.4c-0.5,0.7-0.9,1.4-1.3,2.1c-0.3,0.5-0.5,0.9-0.8,1.4c-0.3,0.6-0.6,1.1-0.8,1.6
			c-0.1,0.4-0.3,0.7-0.5,1c-0.1,0.2-0.2,0.4-0.3,0.7c-0.1,0.1-0.1,0.3-0.2,0.4c-0.4,0.9-0.8,2.1-0.9,3.1c0,0.1,0,0.2-0.1,0.2
			c-0.3,1.1-0.4,2.1-0.3,3.2c0,0.2,0.1,0.5,0.2,0.7c0,0.2,0,0.5,0.1,0.7c0,0.1,0,0.2,0.1,0.2c0.4,1.2,1.1,2.1,2.1,2.9
			c0.9,0.7,2,1,3.2,1c1.1,0,2.1-0.1,3.1-0.4c1.3-0.4,2.5-0.8,3.7-1.4c0.6-0.3,1.2-0.6,1.8-0.9c0.8-0.4,1.6-0.9,2.4-1.3
			c0.1-0.1,0.2-0.1,0.3-0.2c0.3-0.3,0.7-0.5,1-0.8c0.1-0.1,0.2-0.2,0.3-0.2c0.5-0.5,1.2-1,1.6-1.6c0-0.1,0.1-0.1,0.2-0.2
			c0.5-0.5,0.7-0.8,1-1.3c0-0.1,0.1-0.2,0-0.2C171.3,27.8,171.5,27.7,171.4,27.5z"/>
		<path fill="#422D11" d="M156.2,37.4L156.2,37.4l-0.3,0c-1.4,0-2.6-0.4-3.6-1.2c-1.2-0.9-2-2-2.4-3.3c0-0.1-0.1-0.2-0.1-0.4
			c0-0.1,0-0.2,0-0.3c0-0.1,0-0.2,0-0.3c0-0.1,0-0.1-0.1-0.2c0-0.1-0.1-0.3-0.1-0.6c-0.1-1.2,0-2.4,0.3-3.5l0-0.1
			c0.1-1.2,0.7-2.6,1-3.3l0.2-0.6c0.1-0.2,0.1-0.4,0.3-0.6c0.2-0.3,0.3-0.5,0.4-0.8c0.1-0.4,0.3-0.8,0.5-1.2
			c0.1-0.2,0.2-0.4,0.3-0.5c0.2-0.5,0.5-0.9,0.8-1.5c0.1-0.2,0.2-0.4,0.3-0.6c0.3-0.5,0.6-1.1,1-1.6l0.3-0.4c0.2-0.3,0.5-0.6,0.7-1
			l0.1-0.2c0.1-0.1,0.2-0.2,0.3-0.3c0.2-0.2,0.3-0.3,0.3-0.4l0.1-0.2l0.8-0.9c0,0,0.1-0.1,0.1-0.1c0,0,0.1-0.1,0.1-0.1
			c0.3-0.4,0.7-0.8,1-1c0.1,0,0.1-0.1,0.2-0.2c0.2-0.2,0.4-0.4,0.8-0.6c0,0,0.1-0.1,0.1-0.1c0.1-0.1,0.3-0.3,0.6-0.4
			c0.2-0.1,0.3-0.2,0.5-0.2c0.1-0.1,0.2-0.1,0.3-0.2c0.1,0,0.2-0.1,0.2-0.1l0.1-0.1c0.9-0.5,1.5-0.7,2.4-0.8
			c0.5-0.1,0.9-0.1,1.4-0.1c0.5,0,0.9,0.1,1.2,0.3c0,0,0,0,0.1,0c0.7,0.2,1.2,0.6,1.6,1.3c0.3,0.5,0.4,1,0.5,1.5
			c0.1,0.4-0.1,0.9-0.4,1.2c-0.1,0.1-0.3,0.2-0.4,0.3c-0.2,0.1-0.3,0.2-0.6,0.2l-0.2,0c-0.3,0-0.7-0.1-1.1-0.5
			c-0.1-0.1-0.2-0.2-0.3-0.3c-0.1-0.1-0.2-0.2-0.3-0.3c-0.2,0.1-0.4,0.2-0.5,0.3c-0.6,0.4-1.2,0.8-1.8,1.2c-0.1,0.1-0.3,0.2-0.4,0.3
			l-0.5,0.4c-0.4,0.3-0.8,0.6-1,1c-0.1,0.1-0.2,0.2-0.3,0.3l-0.2,0.2c-0.2,0.2-0.3,0.3-0.4,0.5c-0.1,0.2-0.2,0.3-0.4,0.5
			c-0.4,0.5-0.7,1-1.1,1.6l-0.2,0.3c-0.2,0.3-0.4,0.7-0.6,1l-0.2,0.3c-0.2,0.4-0.4,0.7-0.6,1.1l-0.3,0.7c-0.1,0.1-0.1,0.2-0.2,0.3
			c-0.4,0.8-0.8,1.6-1.2,2.5c-0.2,0.4-0.3,0.8-0.5,1.2c-0.3,0.7-0.5,1.4-0.6,2.2c-0.2,0.8-0.2,1.5-0.2,2.3c0,0.5,0.2,0.8,0.6,1
			c0.5,0.3,1,0.4,1.6,0.3c0.6,0,1.1-0.2,1.7-0.3c0.2-0.1,0.4-0.1,0.6-0.2c0.3-0.2,0.7-0.3,1.1-0.4c0.4-0.1,0.7-0.2,1.1-0.4l0.1,0
			c0.7-0.2,1.4-0.6,2.1-0.9c0.4-0.2,0.7-0.4,1.1-0.5l1.2-0.6c0.1-0.1,0.3-0.1,0.4-0.2l1.5-0.8c0.1,0,0.2-0.1,0.3-0.1
			c0.6-0.2,1.2-0.5,1.7-0.8c0.2-0.1,0.4-0.2,0.5-0.3c0.2-0.1,0.5-0.3,0.8-0.3c0.1,0,0.1,0,0.2,0c0.1,0,0.2-0.1,0.3-0.1
			c0.1,0,0.3,0,0.4,0l0.4,0l0.3,0.3c0.2,0.3,0.2,0.5,0.2,0.7c0.1,0.2,0.1,0.5-0.1,0.8c-0.3,0.6-0.6,1-1.1,1.5l-0.1,0.1
			c-0.4,0.5-0.8,1-1.3,1.3c-0.1,0.1-0.3,0.3-0.4,0.4c-0.1,0.1-0.2,0.2-0.3,0.2l-0.1,0.1c-0.1,0.1-0.2,0.2-0.4,0.3
			c-0.2,0.1-0.4,0.3-0.6,0.4c-0.1,0.1-0.3,0.2-0.4,0.3l-0.6,0.3c-0.6,0.4-1.3,0.7-2,1.1c-0.3,0.2-0.6,0.3-0.9,0.5
			c-0.3,0.2-0.6,0.3-0.9,0.5c-1.1,0.6-2.4,1-3.8,1.4C158.3,37.3,157.2,37.4,156.2,37.4z M157.7,15.2c-0.2,0.4-0.4,0.6-0.6,0.8
			c-0.1,0.1-0.1,0.2-0.2,0.2c-0.2,0.4-0.5,0.8-0.8,1.2l-0.2,0.3c-0.3,0.4-0.6,0.9-0.9,1.4c-0.1,0.2-0.2,0.4-0.3,0.6
			c-0.3,0.5-0.5,0.9-0.7,1.3c-0.1,0.2-0.2,0.4-0.3,0.6c-0.2,0.3-0.3,0.6-0.4,0.9c-0.1,0.4-0.3,0.8-0.6,1.2c0,0.1-0.1,0.2-0.1,0.3
			c0,0.1-0.1,0.2-0.1,0.2l-0.1,0.2c0,0.1-0.1,0.2-0.1,0.3c-0.5,1.1-0.8,2.1-0.9,2.9c0,0.1,0,0.2-0.1,0.3c-0.3,1-0.4,1.9-0.3,3
			c0,0.1,0,0.2,0.1,0.3c0,0.1,0.1,0.2,0.1,0.4c0,0.2,0,0.4,0.1,0.6c0,0.1,0,0.1,0,0.2c0.4,1.1,1,1.9,1.9,2.6
			c0.8,0.6,1.7,0.9,2.8,0.9l0.2,0c0.9,0,1.8-0.1,2.7-0.4c1.4-0.4,2.5-0.8,3.6-1.3c0.3-0.1,0.6-0.3,0.9-0.4c0.3-0.2,0.6-0.3,1-0.5
			c0.6-0.3,1.3-0.7,1.9-1l0.6-0.4c0.3-0.3,0.6-0.5,0.8-0.6c0.1-0.1,0.2-0.1,0.3-0.2l0.1-0.1c0,0,0.1-0.1,0.1-0.1
			c0.2-0.1,0.3-0.3,0.5-0.4c0.4-0.4,0.8-0.7,1.1-1.1c0.1-0.1,0.1-0.1,0.2-0.2c0.2-0.2,0.4-0.4,0.5-0.6c0,0-0.1,0-0.1,0.1
			c-0.2,0.1-0.3,0.2-0.5,0.3c-0.7,0.4-1.3,0.8-2.1,1l-1.5,0.8c-0.2,0.1-0.3,0.2-0.5,0.2l-1.2,0.6c-0.3,0.2-0.7,0.3-1,0.5
			c-0.7,0.4-1.4,0.7-2.2,1c-0.4,0.2-0.8,0.3-1.2,0.5c-0.3,0.1-0.6,0.2-0.9,0.3c-0.3,0.1-0.6,0.2-0.8,0.3c-0.7,0.2-1.3,0.3-2,0.4
			c-0.9,0.1-1.7-0.1-2.4-0.5c-0.9-0.5-1.4-1.3-1.4-2.4c0-0.8,0-1.6,0.2-2.5c0.2-0.9,0.4-1.8,0.8-2.6c0.2-0.4,0.3-0.7,0.5-1.1
			c0.4-0.9,0.8-1.8,1.3-2.7c0-0.1,0.1-0.2,0.1-0.2l0.4-0.7c0.2-0.4,0.4-0.8,0.7-1.2l0.2-0.3c0.2-0.3,0.4-0.7,0.6-1l0.2-0.3
			c0.4-0.6,0.8-1.2,1.3-1.8c0.1-0.1,0.1-0.2,0.2-0.3c0.2-0.3,0.4-0.6,0.7-0.8l0.1-0.1c0.1-0.1,0.1-0.1,0.2-0.2
			c0.4-0.6,0.9-1,1.4-1.3l0.5-0.4c0.2-0.2,0.4-0.3,0.6-0.5c0.6-0.4,1.2-0.8,1.8-1.2c0.2-0.1,0.5-0.3,0.8-0.4
			c0.6-0.2,1.1-0.1,1.6,0.3c0.1,0.1,0.2,0.2,0.3,0.3c0.1,0.1,0.2,0.2,0.3,0.3c0,0,0,0,0.1,0c0,0,0,0,0.1,0c-0.1-0.3-0.2-0.6-0.3-0.9
			c-0.2-0.4-0.4-0.5-0.6-0.6c-0.2,0-0.5-0.1-0.7-0.4c-0.5,0.1-0.9,0.1-1.4,0.2c-0.6,0.1-1.1,0.2-1.9,0.6l-0.3,0.2
			c-0.1,0-0.2,0.1-0.2,0.1c-0.2,0.1-0.4,0.3-0.7,0.4c0,0-0.1,0.1-0.1,0.1c-0.1,0.1-0.3,0.3-0.6,0.4c0,0-0.1,0.1-0.2,0.2
			c-0.1,0.1-0.2,0.2-0.3,0.3c-0.3,0.2-0.6,0.5-0.8,0.8c-0.1,0.1-0.2,0.2-0.2,0.3L157.7,15.2z"/>
	</g>
	<g>
		<path fill="#422D11" d="M108.7,18.3c0.1-0.3,0.1-0.7,0.1-1c0-0.1,0-0.2,0-0.3c-0.1-1-0.5-1.9-1.1-2.7c-0.2-0.3-0.5-0.5-0.8-0.8
			c-0.6-0.5-1.3-0.8-2-1c-1.1-0.2-2.2-0.2-3.2-0.2c-0.5,0-1,0.1-1.5,0.1c-0.5,0-1,0.1-1.4,0.2c-0.7,0.1-1.4,0.3-2.1,0.8
			c-0.1,0.1-0.2,0.1-0.4,0.2c-0.7,0.2-1.3,0.5-1.9,0.8c-0.8,0.5-1.5,1-2.2,1.5c-1,0.8-1.8,1.6-2.7,2.5c-0.1,0.1-0.2,0.2-0.3,0.3
			c-0.5,0.6-0.9,1.2-1.3,1.8c-0.2,0.2-0.3,0.4-0.4,0.7c-0.3,0.5-0.6,1-0.8,1.4c-0.8,1.3-1.4,2.8-1.9,4.3c-0.2,0.6-0.4,1.3-0.5,1.9
			c-0.2,1.2-0.3,2.5-0.1,3.7c0.1,0.7,0.4,1.3,0.7,1.9c0.1,0.2,0.2,0.3,0.4,0.5c0.2,0.2,0.4,0.4,0.6,0.5c0.2,0.1,0.4,0.2,0.6,0.3
			c0.2,0.1,0.3,0.2,0.5,0.2c0.2,0,0.4,0,0.6,0.1c0.3,0,0.6,0.1,0.9,0c1.5-0.1,2.8-0.6,4.2-1.2c1-0.5,1.9-1,2.8-1.5
			c0.6-0.4,1.3-0.7,1.9-1.1c1.3-0.7,2.5-1.5,3.6-2.5c1-0.9,2-1.8,2.9-2.8c0.2-0.2,0.4-0.4,0.6-0.6c0.2-0.3,0.5-0.6,0.7-0.9
			c0.1-0.2,0.3-0.4,0.4-0.6c0.2-0.2,0.3-0.5,0.5-0.7c0.4-0.6,0.7-1.2,1.1-1.8C108,21,108.4,19.7,108.7,18.3z M106,17.8
			c-0.2,0.9-0.5,1.8-0.9,2.7c-0.3,0.6-0.6,1.2-1,1.8c-0.4,0.5-0.8,1.1-1.1,1.6c-0.2,0.3-0.4,0.5-0.6,0.7c-0.5,0.5-1,1-1.5,1.5
			c-0.5,0.4-0.9,0.8-1.4,1.2c-0.7,0.5-1.3,1.1-2.1,1.6c-0.8,0.5-1.7,1.1-2.6,1.5c-0.6,0.3-1.1,0.6-1.7,0.9c-0.8,0.4-1.6,0.8-2.4,1.2
			c-0.7,0.3-1.4,0.5-2.2,0.6c-0.3,0-0.6,0-0.9-0.1c-0.3-0.1-0.5-0.3-0.5-0.5c-0.1-0.3-0.1-0.6-0.1-0.9c0.1-0.8,0.1-1.7,0.3-2.5
			c0.1-0.6,0.2-1.1,0.5-1.7c0.3-0.9,0.8-1.8,1.2-2.6c0,0,0.1-0.1,0.1-0.1c0.3-0.8,0.8-1.4,1.2-2c0.1-0.2,0.2-0.3,0.4-0.5
			c0.4-0.6,0.8-1.2,1.3-1.7c0.5-0.5,1-1.1,1.4-1.6c0.2-0.2,0.5-0.5,0.8-0.7c0.3-0.2,0.6-0.4,0.9-0.7c0.8-0.6,1.6-1.1,2.5-1.4
			c0,0,0,0,0.1,0c0.7-0.3,0.7-0.3,1.5-0.3c0.4,0,0.8-0.1,1.2-0.4c0.2-0.2,0.5-0.3,0.7-0.3c0.4,0,0.7,0,1,0c0.5,0,0.9,0,1.2,0.1
			c0.6,0,1.2,0.2,1.8,0.4c0.1,0,0.2,0.1,0.4,0.2c0.4,0.2,0.6,0.6,0.7,1C106,17.1,106,17.5,106,17.8z"/>
		<path fill="#422D11" d="M88.4,36.6c-0.2,0-0.4,0-0.6-0.1c-0.2,0-0.4-0.1-0.6-0.1c-0.3,0-0.6-0.1-0.8-0.3c-0.1,0-0.1-0.1-0.2-0.1
			c-0.1-0.1-0.3-0.1-0.4-0.2c-0.2-0.1-0.3-0.2-0.5-0.4L85,35.3c-0.2-0.2-0.4-0.4-0.6-0.6c-0.4-0.6-0.7-1.4-0.9-2.2
			c-0.2-1.5-0.1-2.9,0.1-3.9c0.1-0.7,0.3-1.3,0.5-1.9c0.5-1.7,1.2-3.2,2-4.5c0.1-0.2,0.2-0.4,0.3-0.5c0.2-0.3,0.4-0.6,0.6-0.9
			l0.5-0.8c0.4-0.6,0.8-1.2,1.3-1.7l0.1-0.1c0.1-0.1,0.1-0.2,0.2-0.2c0.9-0.9,1.8-1.8,2.7-2.5c0.8-0.6,1.5-1.1,2.3-1.6
			c0.5-0.3,1.2-0.7,2.1-0.9c0,0,0.1,0,0.1-0.1c0.8-0.6,1.6-0.8,2.3-0.9c0.4-0.1,0.8-0.1,1.2-0.1l0.2,0c0.3,0,0.7,0,1-0.1l0.5,0
			l0.5,0c0.9,0,1.9,0,2.9,0.2c0.9,0.2,1.7,0.6,2.3,1.1c0.4,0.3,0.6,0.6,0.9,0.9c0.7,0.9,1.1,1.9,1.3,3c0,0.1,0,0.3,0,0.5l0,0.2
			c0,0.3-0.1,0.6-0.1,0.9c-0.3,1.6-0.8,2.9-1.4,4.1c-0.3,0.6-0.7,1.3-1.1,1.9c-0.1,0.2-0.3,0.4-0.4,0.6l-0.2,0.2
			c-0.1,0.2-0.2,0.3-0.4,0.5c-0.2,0.3-0.5,0.6-0.7,0.9c-0.1,0.1-0.2,0.3-0.3,0.4l-0.2,0.3c-1,1.1-2.1,2.1-3,2.9
			c-1.1,0.9-2.3,1.8-3.7,2.5c-0.3,0.1-0.5,0.3-0.8,0.4c-0.4,0.2-0.8,0.5-1.2,0.7c-0.9,0.5-1.9,1-2.8,1.5c-1.4,0.7-2.9,1.1-4.4,1.3
			C88.6,36.6,88.5,36.6,88.4,36.6z M101.7,13l-0.4,0c-0.3,0-0.7,0-1,0.1l-0.3,0c-0.4,0-0.7,0.1-1.1,0.1c-0.6,0.1-1.2,0.3-1.8,0.7
			c-0.2,0.1-0.4,0.2-0.6,0.3c-0.6,0.2-1.2,0.5-1.7,0.7c-0.7,0.4-1.4,0.9-2.1,1.5c-0.9,0.7-1.7,1.5-2.6,2.4c0,0-0.1,0.1-0.1,0.1
			L90,19.1c-0.4,0.5-0.8,1-1.2,1.6l-0.5,0.8c-0.2,0.3-0.3,0.5-0.5,0.8c-0.1,0.2-0.2,0.4-0.3,0.6c-0.8,1.2-1.4,2.6-1.8,4.1
			c-0.2,0.7-0.4,1.2-0.5,1.8c-0.2,1-0.3,2.2-0.1,3.5c0.1,0.6,0.3,1.2,0.6,1.6c0.1,0.1,0.2,0.2,0.3,0.3l0.2,0.2
			c0.1,0.1,0.2,0.2,0.4,0.3c0.1,0,0.2,0.1,0.2,0.1c0.1,0.1,0.3,0.1,0.4,0.2c0.1,0,0.1,0.1,0.2,0.1c0.2,0,0.5,0.1,0.7,0.1
			c0.2,0,0.5,0,0.7,0c1.3-0.1,2.7-0.5,3.9-1.1c0.9-0.4,1.8-0.9,2.7-1.4c0.4-0.2,0.8-0.5,1.2-0.7c0.3-0.2,0.5-0.3,0.8-0.5
			c1.3-0.7,2.4-1.5,3.5-2.4c1-0.8,2-1.7,2.9-2.7l0.3-0.3c0.1-0.1,0.2-0.2,0.3-0.3c0.2-0.3,0.5-0.6,0.7-0.8c0.1-0.1,0.2-0.3,0.3-0.5
			l0.2-0.2c0.1-0.2,0.3-0.4,0.4-0.5c0.4-0.6,0.7-1.2,1-1.8c0.6-1.1,1-2.3,1.3-3.7c0.1-0.2,0.1-0.5,0.1-0.7l0-0.2c0-0.1,0-0.1,0-0.2
			c-0.1-0.9-0.4-1.6-1-2.3c-0.2-0.2-0.4-0.4-0.7-0.7c-0.5-0.4-1.1-0.7-1.8-0.9c-0.8-0.2-1.7-0.2-2.6-0.2L101.7,13z M88,33.8
			c-0.3,0-0.5,0-0.8-0.1c-0.5-0.1-0.9-0.5-1-1.1c-0.1-0.3-0.1-0.7-0.1-1.1c0-0.3,0.1-0.5,0.1-0.8c0.1-0.6,0.1-1.2,0.3-1.8
			c0-0.1,0.1-0.3,0.1-0.4c0.1-0.4,0.2-0.9,0.5-1.4c0.3-0.8,0.6-1.5,1-2.1l0.3-0.6c0.2-0.6,0.6-1.2,1-1.7c0.1-0.1,0.2-0.3,0.3-0.4
			c0.1-0.1,0.1-0.2,0.2-0.2c0.1-0.1,0.1-0.2,0.2-0.3c0.4-0.6,0.8-1.2,1.4-1.8c0.3-0.3,0.5-0.6,0.8-0.8c0.2-0.2,0.4-0.5,0.7-0.7
			c0.3-0.3,0.6-0.6,0.9-0.8c0.3-0.2,0.5-0.4,0.7-0.6l0.1-0.1c0.8-0.6,1.6-1.1,2.7-1.6l0.2-0.1c0.7-0.3,0.8-0.3,1.6-0.3
			c0.3,0,0.6-0.1,0.7-0.2c0.3-0.3,0.7-0.4,1.2-0.4l2.4,0.1c0.7,0,1.4,0.2,2,0.5c0.2,0.1,0.3,0.1,0.5,0.2c0.5,0.3,0.9,0.8,1,1.5
			c0.1,0.5,0.1,0.9,0,1.3c-0.2,1-0.5,2-1,2.9l-0.1,0.2c-0.3,0.5-0.6,1.1-0.9,1.6l-0.1,0.1c-0.4,0.5-0.7,1-1.1,1.5
			c-0.2,0.3-0.5,0.6-0.7,0.8c-0.3,0.2-0.5,0.5-0.8,0.8c-0.2,0.2-0.5,0.5-0.7,0.7c-0.5,0.5-1,0.9-1.5,1.3l-0.3,0.2
			c-0.6,0.5-1.2,1-1.9,1.4l-0.5,0.3c-0.7,0.4-1.4,0.9-2.2,1.3c-0.4,0.2-0.7,0.4-1.1,0.6c-0.2,0.1-0.3,0.2-0.5,0.3
			c-0.7,0.4-1.5,0.8-2.5,1.2c-0.8,0.3-1.6,0.5-2.4,0.7C88.3,33.8,88.1,33.8,88,33.8z M97.5,16.1l0.3,0.6c-0.9,0.4-1.7,0.8-2.4,1.3
			l-0.1,0.1c-0.3,0.2-0.5,0.4-0.8,0.6c-0.2,0.1-0.4,0.3-0.7,0.6c-0.2,0.2-0.4,0.5-0.6,0.7c-0.3,0.3-0.5,0.6-0.8,0.9
			c-0.5,0.5-0.9,1-1.2,1.5c-0.1,0.1-0.2,0.2-0.2,0.4L90.8,23c-0.1,0.2-0.2,0.3-0.3,0.5c-0.3,0.5-0.6,0.9-0.8,1.5
			c0,0.1-0.1,0.1-0.1,0.2l-0.3,0.6c-0.3,0.7-0.7,1.3-0.9,2l-0.1,0.1c-0.2,0.3-0.3,0.7-0.3,1.1c0,0.1-0.1,0.3-0.1,0.4
			c-0.1,0.5-0.2,1-0.2,1.6c0,0.3,0,0.6-0.1,0.8c0,0.2,0,0.4,0.1,0.6c0.2,0.1,0.4,0.1,0.6,0.1c0.7-0.1,1.4-0.3,2-0.6
			c0.9-0.4,1.7-0.8,2.4-1.2l0.5-0.3c0.4-0.2,0.8-0.4,1.2-0.6c0.7-0.3,1.3-0.7,2-1.2l0.5-0.3c0.6-0.4,1.1-0.8,1.7-1.3l0.3-0.2
			c0.4-0.3,0.9-0.7,1.4-1.2c0.2-0.2,0.5-0.5,0.7-0.7c0.3-0.3,0.5-0.5,0.8-0.8c0.2-0.2,0.4-0.4,0.6-0.6c0.4-0.5,0.7-1,1.1-1.5
			l0.1-0.1c0.3-0.5,0.6-1,0.9-1.5l0.1-0.2c0.4-0.8,0.7-1.6,0.9-2.5c0-0.3,0-0.5,0-0.9c0-0.3-0.2-0.4-0.4-0.6c-0.1,0-0.2-0.1-0.2-0.1
			c-0.5-0.2-1-0.3-1.5-0.4l-1.2-0.1l-0.6,0l-0.4,0l0-0.7v0.7c-0.1,0-0.2,0-0.2,0.1c-0.5,0.5-1.2,0.6-1.6,0.6c-0.6,0-0.6,0-1.2,0.2
			L97.5,16.1z"/>
	</g>
	<g>
		<path fill="#422D11" d="M84.1,16.2c0.1-0.2,0.3-0.5,0.3-0.8c0.1-0.6,0.2-1.3-0.2-1.9c-0.1-0.1-0.1-0.2-0.1-0.2
			c-0.1-0.5-0.5-0.9-0.9-1.2c-0.6-0.5-1.2-0.7-2.1-0.6C80,11.7,79,12,77.9,12.4c-0.1,0-0.1,0-0.2,0.1c-0.4,0.3-0.8,0.4-1.2,0.6
			c-0.3,0.1-0.5,0.3-0.8,0.5c-0.3,0.2-0.7,0.4-1,0.7c-0.3,0.2-0.6,0.5-0.9,0.7c-0.3,0.2-0.6,0.5-0.9,0.7c-0.4,0.3-0.7,0.6-1,0.9
			c-0.4,0.4-0.8,0.7-1.1,1.1c-0.4,0.4-0.7,0.8-1.1,1.2c-0.3,0.3-0.5,0.6-0.8,0.9c-0.3,0.3-0.5,0.7-0.8,1c-0.1,0.1-0.1,0.2-0.2,0.2
			c-0.4,0.4-0.7,0.8-0.9,1.3c-0.1,0.2-0.2,0.3-0.3,0.4c-0.4,0.5-0.7,1-1,1.5c-0.2,0.5-0.5,0.9-0.8,1.4c-0.4,0.7-0.7,1.3-1,2.1
			c-0.4,1-0.8,2.1-1.1,3.1c-0.2,0.6-0.4,1.2-0.4,1.9c-0.1,0.9-0.2,1.8-0.2,2.8c0,1.4,0.2,2.7,0.6,4c0.1,0.4,0.3,0.7,0.5,1.1
			c0.3,0.6,0.8,1.1,1.2,1.6c0.5,0.5,1.1,0.9,1.7,1.2c0.4,0.2,0.8,0.3,1.2,0.4c0.4,0.2,0.9,0.2,1.4,0.2c0.6,0,1.1,0,1.7-0.1
			c0.9-0.1,1.7-0.3,2.5-0.5c0.3-0.1,0.6-0.2,0.8-0.4c0.4-0.2,0.8-0.4,1.2-0.6c0.8-0.4,1.5-0.8,2.3-1.3c0.8-0.5,1.5-1,2.3-1.6
			c0.1,0,0.1-0.1,0.1-0.1c0.5-0.5,1.1-1,1.6-1.5c0.4-0.4,0.7-0.8,1-1.3c0.2-0.2,0.1-0.4,0-0.6c0-0.1-0.1-0.1-0.2-0.1
			c-0.2,0-0.3,0-0.5,0c-0.3,0.1-0.5,0.2-0.8,0.4c-0.9,0.5-1.8,0.9-2.7,1.2c-0.5,0.2-1,0.4-1.5,0.7c-0.4,0.2-0.8,0.4-1.1,0.6
			c-0.2,0.1-0.4,0.2-0.7,0.3c-1.1,0.6-2.3,1.2-3.6,1.5c-0.7,0.2-1.4,0.4-2.2,0.2c-0.2,0-0.4,0-0.6-0.1c-0.3-0.1-0.7-0.1-1-0.2
			c-0.2,0-0.3-0.1-0.5-0.3c-0.4-0.3-0.7-0.7-0.9-1.3c-0.3-0.8-0.5-1.5-0.5-2.3c0-0.5-0.1-1,0-1.5c0-1.3,0.3-2.5,0.7-3.7
			c0.2-0.7,0.5-1.4,0.8-2.2c0.2-0.7,0.5-1.3,0.9-1.9c0.1-0.2,0.3-0.5,0.4-0.7c0.2-0.4,0.4-0.8,0.7-1.2c0.6-0.9,1.1-1.8,1.7-2.6
			c0.3-0.4,0.6-0.9,1-1.2c0.3-0.3,0.4-0.6,0.7-0.8c0.5-0.8,1.2-1.4,1.9-2c0.3-0.3,0.6-0.5,0.9-0.8c0.3-0.3,0.6-0.6,0.9-0.8
			c0.4-0.2,0.6-0.5,0.9-0.8c0.8-0.6,1.6-1.1,2.4-1.5c0.5-0.3,1.1-0.5,1.6-0.7c0.3-0.1,0.5-0.1,0.8-0.1c0.3,0,0.5,0.2,0.7,0.4
			c0,0.1,0.1,0.2,0.1,0.3c0.1,0.3,0.2,0.7,0.3,1c0.1,0.3,0.3,0.6,0.6,0.7c0.1,0,0.2-0.1,0.3-0.1C83.8,16.4,84,16.4,84.1,16.2z"/>
		<path fill="#422D11" d="M68.4,44.9c-0.5,0-1-0.1-1.4-0.3l-0.4-0.1c-0.3-0.1-0.6-0.2-0.9-0.3c-0.8-0.4-1.5-0.8-2-1.4
			c-0.5-0.6-0.9-1.1-1.3-1.7c-0.2-0.4-0.4-0.8-0.6-1.2c-0.5-1.3-0.7-2.8-0.7-4.2c0-0.9,0.1-1.8,0.2-2.7l0-0.2
			c0.1-0.6,0.2-1.2,0.4-1.7l0.1-0.3c0.3-1.1,0.7-2.1,1.2-3.2c0.3-0.7,0.6-1.3,1-1.9l0.1-0.2c0.1-0.2,0.2-0.4,0.3-0.6
			c0.1-0.2,0.3-0.5,0.4-0.7c0.3-0.6,0.7-1.2,1.1-1.7c0.1-0.1,0.2-0.2,0.2-0.3c0.3-0.6,0.6-1.1,1.1-1.5l0.1-0.1
			c0.1-0.1,0.1-0.2,0.2-0.3c0.2-0.3,0.4-0.6,0.6-0.8c0.1-0.1,0.2-0.3,0.3-0.4c0.1-0.2,0.3-0.4,0.5-0.5c0.2-0.2,0.3-0.4,0.5-0.5
			c0.2-0.2,0.4-0.5,0.6-0.7c0.4-0.4,0.8-0.7,1.2-1.1c0.3-0.3,0.7-0.6,1.1-0.9c0.2-0.2,0.4-0.3,0.6-0.5l0.6-0.5
			c0.2-0.2,0.4-0.4,0.7-0.5c0.3-0.2,0.7-0.5,1-0.7c0.3-0.2,0.6-0.4,0.9-0.5c0.1-0.1,0.3-0.1,0.4-0.2c0.3-0.1,0.5-0.2,0.6-0.3
			c0.2-0.1,0.3-0.2,0.4-0.2l0.2-0.1c1-0.4,2.1-0.7,3.3-0.9c1-0.1,1.9,0.1,2.6,0.8c0.4,0.4,0.9,0.8,1.1,1.5c0.7,0.9,0.5,1.9,0.4,2.5
			c-0.1,0.4-0.2,0.7-0.4,0.9c-0.2,0.4-0.6,0.5-0.8,0.6c-0.2,0.1-0.3,0.1-0.4,0.2l-0.3,0.1L83,17.3c-0.5-0.2-0.8-0.6-1-1.2L82,15.8
			c-0.1-0.2-0.1-0.4-0.2-0.6L81.7,15l-0.1,0c-0.2,0-0.3,0-0.4,0.1c-0.2,0.1-0.3,0.1-0.5,0.2c-0.4,0.1-0.7,0.3-1,0.5
			c-0.8,0.4-1.6,1-2.3,1.5c-0.1,0.1-0.2,0.2-0.3,0.3c-0.2,0.2-0.4,0.4-0.6,0.5c-0.2,0.1-0.3,0.3-0.5,0.4c-0.1,0.1-0.2,0.2-0.3,0.3
			L75.3,19c-0.2,0.2-0.4,0.3-0.6,0.5l-0.1,0.1c-0.6,0.6-1.2,1.2-1.7,1.8l-0.1,0.2c-0.1,0.1-0.2,0.2-0.3,0.4
			c-0.1,0.1-0.2,0.3-0.3,0.4c-0.3,0.3-0.6,0.7-0.9,1.1c-0.6,0.9-1.2,1.7-1.7,2.6c-0.2,0.3-0.4,0.6-0.6,0.9l-0.1,0.2
			c-0.1,0.1-0.1,0.2-0.2,0.3c-0.1,0.1-0.1,0.3-0.2,0.4c-0.3,0.5-0.6,1.1-0.8,1.8c-0.1,0.3-0.2,0.5-0.3,0.8c-0.2,0.4-0.3,0.9-0.5,1.3
			c-0.4,1.3-0.6,2.4-0.6,3.5c0,0.2,0,0.5,0,0.7c0,0.3,0,0.5,0,0.8c0,0.7,0.2,1.3,0.4,2.1c0.1,0.3,0.3,0.6,0.7,0.9
			c0.1,0,0.1,0.1,0.2,0.1c0.3,0.1,0.6,0.1,0.9,0.2c0.1,0,0.1,0,0.2,0c0.1,0,0.3,0,0.4,0c0.6,0.1,1.3-0.1,1.8-0.2
			c1.3-0.4,2.5-1,3.4-1.5c0.1-0.1,0.3-0.1,0.4-0.2c0.1,0,0.2-0.1,0.3-0.1l0.2-0.1c0.3-0.2,0.6-0.3,1-0.5c0.6-0.3,1.1-0.6,1.6-0.8
			c0.9-0.3,1.7-0.7,2.6-1.2c0.3-0.2,0.6-0.3,0.8-0.4c0.2-0.1,0.4-0.1,0.6-0.1l0.1,0c0.4,0,0.7,0.2,0.9,0.6c0.1,0.2,0.4,0.8,0,1.4
			c-0.3,0.5-0.7,1-1.1,1.4c-0.4,0.4-0.8,0.8-1.2,1.1L80,40.1c-0.1,0.1-0.2,0.1-0.2,0.2l-0.7,0.5c-0.5,0.4-1.1,0.8-1.7,1.1
			c-0.8,0.5-1.5,0.9-2.3,1.3c-0.2,0.1-0.3,0.2-0.5,0.2c-0.2,0.1-0.5,0.2-0.7,0.4c-0.3,0.2-0.6,0.3-1,0.4c-1,0.3-1.9,0.5-2.7,0.6
			c-0.4,0-0.7,0-1.1,0c-0.2,0-0.4,0-0.6,0L68.4,44.9z M78.1,13.1c-0.3,0.3-0.7,0.4-1,0.5c-0.1,0-0.2,0.1-0.3,0.1
			c-0.3,0.1-0.5,0.3-0.7,0.4c-0.3,0.2-0.6,0.4-1,0.6c-0.2,0.2-0.4,0.3-0.6,0.5l-0.6,0.5c-0.2,0.2-0.4,0.3-0.6,0.5
			c-0.3,0.3-0.7,0.6-1,0.9c-0.4,0.3-0.8,0.7-1.1,1.1c-0.2,0.2-0.4,0.4-0.6,0.6c-0.2,0.2-0.4,0.4-0.6,0.6c-0.1,0.1-0.2,0.3-0.4,0.4
			c-0.1,0.2-0.3,0.3-0.4,0.5c-0.2,0.2-0.3,0.4-0.4,0.6c-0.1,0.1-0.2,0.2-0.2,0.4c-0.1,0.1-0.2,0.2-0.3,0.3c-0.3,0.3-0.5,0.6-0.7,1
			c-0.1,0.3-0.3,0.5-0.4,0.6c-0.3,0.4-0.7,0.8-0.9,1.4c-0.1,0.3-0.3,0.5-0.4,0.8c-0.1,0.2-0.2,0.4-0.3,0.6l-0.1,0.2
			c-0.3,0.6-0.6,1.2-0.9,1.8c-0.5,1.1-0.8,2-1.1,3l-0.1,0.3c-0.1,0.5-0.3,1-0.3,1.5l0,0.2c-0.1,0.9-0.2,1.7-0.2,2.5
			c0,1.3,0.2,2.6,0.6,3.8c0.1,0.4,0.3,0.7,0.4,0.9c0.3,0.5,0.7,1,1.1,1.5c0.4,0.4,0.9,0.8,1.5,1c0.2,0.1,0.5,0.2,0.7,0.3
			c0.1,0,0.3,0.1,0.4,0.1c0.3,0.1,0.6,0.2,0.9,0.2l0.1,0c0.2,0,0.4,0,0.7,0c0.3,0,0.7,0,1,0c0.7-0.1,1.4-0.2,2.4-0.5
			c0.3-0.1,0.5-0.2,0.7-0.3c0.3-0.2,0.6-0.3,0.8-0.4c0.1-0.1,0.3-0.1,0.4-0.2c0.7-0.4,1.5-0.8,2.2-1.2c0.5-0.3,1.1-0.7,1.6-1.1
			l0.7-0.5l0.5-0.5c0.4-0.4,0.8-0.7,1.1-1.1c0.1-0.1,0.2-0.3,0.3-0.4c-0.9,0.5-1.8,0.9-2.7,1.2c-0.4,0.2-0.9,0.4-1.4,0.7
			c-0.3,0.2-0.7,0.4-1,0.5l-0.2,0.1c-0.1,0.1-0.2,0.1-0.3,0.2c-0.1,0-0.2,0.1-0.3,0.2c-1,0.5-2.3,1.2-3.7,1.6
			c-0.7,0.2-1.6,0.4-2.5,0.3c-0.1,0-0.2,0-0.2,0c-0.1,0-0.3,0-0.4,0c-0.4-0.1-0.7-0.1-1.1-0.2c-0.3-0.1-0.6-0.2-0.8-0.4
			c-0.4-0.3-0.9-0.8-1.1-1.6c-0.3-0.8-0.5-1.7-0.5-2.6c0-0.2,0-0.4,0-0.7c0-0.3,0-0.5,0-0.8c0-1.2,0.3-2.5,0.7-3.9
			c0.2-0.5,0.3-1,0.5-1.4c0.1-0.3,0.2-0.5,0.3-0.8c0.3-0.8,0.6-1.4,0.9-2c0.1-0.1,0.1-0.2,0.2-0.3c0.1-0.1,0.1-0.3,0.2-0.4l0.1-0.2
			c0.2-0.3,0.4-0.7,0.6-1c0.6-0.9,1.2-1.8,1.8-2.6c0.3-0.5,0.6-0.9,1-1.3c0.1-0.1,0.2-0.2,0.2-0.3c0.1-0.2,0.3-0.4,0.5-0.5
			c0.5-0.8,1.2-1.4,1.8-2l0.1-0.1c0.2-0.2,0.4-0.4,0.6-0.6l0.3-0.2c0.1-0.1,0.2-0.2,0.2-0.2c0.2-0.2,0.5-0.4,0.8-0.6
			c0.1-0.1,0.2-0.2,0.4-0.3c0.2-0.1,0.3-0.3,0.5-0.4c0.7-0.5,1.6-1.1,2.5-1.6c0.4-0.2,0.8-0.4,1.2-0.5c0.2-0.1,0.3-0.1,0.5-0.2
			c0.3-0.1,0.6-0.2,1-0.2l0.2,0c0.5,0,1,0.3,1.3,0.8c0.1,0.1,0.1,0.3,0.2,0.4c0.1,0.2,0.1,0.4,0.2,0.7l0.1,0.3c0,0,0,0,0,0
			c0,0,0,0,0,0c0.1-0.2,0.2-0.3,0.2-0.4c0.1-0.6,0.1-1-0.1-1.3c-0.1-0.1-0.2-0.3-0.2-0.5c-0.1-0.3-0.3-0.5-0.6-0.8
			c-0.5-0.4-0.9-0.5-1.5-0.4c-1,0.1-2,0.4-3,0.8L78.1,13.1C78.1,13.1,78.1,13.1,78.1,13.1z"/>
	</g>
	<g>
		<path fill="#422D11" d="M143.7,24.4c-0.1-0.2-0.2-0.4-0.4-0.5c-0.8-0.5-0.7-0.5-1.5-0.1c-0.1,0.1-0.2,0.2-0.4,0.2
			c-0.3,0.2-0.7,0.5-1,0.7c-0.6,0.4-1.2,0.7-1.7,1.2c0,0-0.1,0.1-0.1,0.1c-0.9,0.5-1.7,1.2-2.6,1.9c-0.5,0.4-1,0.8-1.5,1.2
			c-0.5,0.4-1,0.9-1.6,1.3c-0.3,0.3-0.6,0.5-1,0.8c-0.1,0.1-0.3,0.3-0.5,0.2c-0.1-0.1-0.2-0.1-0.2-0.2c-0.4-0.6-0.8-1.1-1.2-1.7
			c-0.3-0.4-0.5-0.9-0.8-1.3c-0.5-0.6-0.9-1.4-1.4-2.1c-0.2-0.2-0.3-0.5-0.4-0.8c-0.1-0.1,0-0.3,0.1-0.4c0.6-0.4,1.3-0.8,1.9-1.3
			c0.8-0.5,1.7-1,2.4-1.6c0.5-0.4,1-0.7,1.5-1.1c0.3-0.2,0.6-0.4,0.8-0.6c0.6-0.4,1.1-0.9,1.7-1.3c0.5-0.3,0.9-0.7,1.3-1
			c0.2-0.2,0.3-0.3,0.5-0.5c0.7-0.6,1.4-1.2,2.1-1.8c0.2-0.2,0.3-0.3,0.5-0.5c0.2-0.2,0.4-0.5,0.6-0.8c0.5-0.6,1-1.3,1.5-2
			c0.2-0.4,0.4-0.8,0.6-1.2c0.1-0.3,0.2-0.6,0.2-1c0-1.1-0.5-1.9-1-2.8c-0.5-0.5-0.9-1-1.4-1.3c-0.7-0.5-1.5-1.1-2.4-1.4
			c-0.8-0.3-1.7-0.7-2.6-1c-0.5-0.1-1.1-0.2-1.7-0.3c-1-0.2-1.9,0-2.9,0.1c-0.1,0-0.2,0.1-0.3,0.1c-0.5,0.2-1,0.4-1.5,0.5
			c-0.7,0.2-1.3,0.5-1.9,0.9c-0.4,0.3-0.9,0.5-1.2,0.9c-0.5,0.3-1,0.7-1.4,1.2c-0.8,0.8-1.5,1.6-2.1,2.5c-0.7,1.1-1.4,2.2-1.7,3.5
			c-0.1,0.3-0.2,0.6-0.3,0.9c-0.1,0.6-0.3,1.1-0.2,1.7c0,0.7,0.1,1.4,0.2,2c0,0.2,0.1,0.3,0.2,0.5c0.1,0.2,0.2,0.4,0.2,0.7
			c0.2,0.6,0.4,1.1,0.7,1.6c0.5,1.1,1,2.2,1.4,3.3c0,0.1,0,0.2,0.1,0.3c-0.1,0.1-0.2,0.2-0.2,0.2c-0.6,0.4-1.2,0.8-1.8,1.3
			c-0.4,0.3-0.8,0.6-1.2,0.8c-0.5,0.3-0.9,0.6-1.3,0.9c-0.5,0.4-1,0.8-1.5,1.2c-0.4,0.3-0.8,0.6-1.1,0.9c-0.6,0.6-1.3,1.1-1.9,1.8
			c-0.5,0.6-1.1,1.1-1.6,1.7c-0.3,0.3-0.6,0.7-0.9,1c-0.9,1.1-1.8,2.2-2.3,3.6c-0.4,1-0.6,2-0.5,3c0.1,0.8,0.4,1.4,0.9,2
			c0.3,0.3,0.6,0.6,0.9,0.9c0.5,0.4,1,0.7,1.6,0.9c0.4,0.1,0.9,0.2,1.3,0.2c0.6,0,1.2,0.1,1.9,0c0.4-0.1,0.8-0.2,1.2-0.2
			c0.5-0.1,0.9-0.2,1.4-0.4c0.2-0.1,0.4-0.2,0.6-0.3c0.4-0.1,0.7-0.3,1-0.5c0.4-0.2,0.7-0.4,1.1-0.5c0.3-0.1,0.6-0.3,0.8-0.5
			c0.3-0.2,0.6-0.4,0.9-0.6c0.1-0.1,0.2-0.1,0.3-0.2c0.5-0.4,1.2-0.7,1.7-1.1c0.9-0.5,1.7-1.1,2.6-1.7c1.2-0.8,2.4-1.6,3.5-2.6
			c0.1-0.1,0.3-0.1,0.4,0c0.8,0.7,1.5,1.5,2.4,2.1c0.2,0.1,0.4,0.3,0.5,0.5c1.5,1.3,3,2.4,4.7,3.4c0.3,0.2,0.6,0.2,0.8,0.1
			c0.4-0.1,0.6-0.3,0.6-0.7c0-0.2,0-0.4-0.1-0.5c-0.1-0.2-0.2-0.4-0.2-0.6c-0.1-0.2-0.2-0.4-0.3-0.5c-0.3-0.4-0.7-0.7-1.1-1.1
			c-0.5-0.4-1-0.9-1.5-1.4c-0.3-0.3-0.6-0.6-0.9-0.8c-0.8-0.6-1.5-1.3-2.2-2c-0.1-0.1-0.2-0.2-0.3-0.3c-0.2-0.2-0.2-0.4,0-0.6
			c0.3-0.2,0.5-0.5,0.8-0.7c0.5-0.4,0.9-0.8,1.4-1.2c0.4-0.3,0.7-0.7,1.1-1c0.8-0.6,1.6-1.1,2.3-1.7c0.8-0.7,1.6-1.3,2.5-2
			c0.1-0.1,0.2-0.2,0.3-0.3c0.2-0.2,0.4-0.5,0.7-0.7c0.4-0.3,0.6-0.8,0.8-1.2C143.8,24.7,143.8,24.5,143.7,24.4z M124.3,15.4
			c0.1-0.4,0.1-0.9,0.3-1.3c0.3-1,0.8-2,1.4-2.9c0.7-1.1,1.6-2.1,2.6-2.9c0.5-0.4,0.9-0.7,1.4-1c0.6-0.4,1.3-0.6,2.1-0.8
			c0.5-0.1,1.1-0.2,1.5-0.1c1-0.1,1.8,0.2,2.7,0.4c1.1,0.3,2.1,1,3,1.7c0.2,0.2,0.4,0.4,0.5,0.6c0.1,0.2,0.2,0.4,0.3,0.5
			c0.2,0.2,0.2,0.5,0.1,0.8c-0.1,0.4-0.3,0.9-0.5,1.2c-0.3,0.5-0.6,1.1-1.1,1.5c-0.4,0.4-0.7,0.8-1.1,1.2c-0.7,0.7-1.5,1.4-2.3,2
			c-0.3,0.2-0.5,0.4-0.8,0.6c-0.5,0.4-1,0.8-1.5,1.1c-0.4,0.2-0.7,0.5-1.1,0.8c-0.8,0.6-1.5,1.2-2.3,1.8c-0.6,0.4-1.1,0.8-1.7,1.1
			c-0.3,0.1-0.5,0.4-0.8,0.5c-0.2,0.1-0.4,0.2-0.6,0.3c-0.1,0-0.2,0-0.2-0.1c-0.2-0.5-0.4-0.9-0.6-1.4c-0.2-0.5-0.4-0.9-0.5-1.4
			c-0.1-0.5-0.3-0.9-0.4-1.3c0-0.1-0.1-0.3-0.1-0.4C124.1,17.1,124.1,16.2,124.3,15.4z M128.6,34.2c-0.7,0.4-1.2,1-1.9,1.4
			c-0.7,0.5-1.4,1.1-2.2,1.6c-1,0.6-1.8,1.3-2.8,1.9c-1.1,0.7-2.2,1.3-3.3,1.9c-0.8,0.4-1.7,0.7-2.6,0.9c-0.1,0-0.3,0-0.4,0.1
			c-0.6,0.2-1.2,0.1-1.8-0.1c-0.4-0.1-0.7-0.3-0.9-0.7c-0.3-0.7-0.4-1.3-0.2-2.1c0.2-0.6,0.4-1.2,0.8-1.8c0.5-0.8,1.1-1.6,1.7-2.3
			c1-1.2,2.1-2.3,3.2-3.3c1-0.8,1.9-1.7,2.9-2.4c0.1-0.1,0.2-0.2,0.3-0.2c0.8-0.5,1.6-1.1,2.3-1.6c0.1-0.1,0.2-0.1,0.3-0.2
			c0.7-0.4,0.8-0.2,1,0.3c0.5,1,1.2,1.9,1.8,2.8c0.3,0.5,0.6,1,1,1.5c0.3,0.5,0.7,0.9,1,1.4c0.1,0.1,0.1,0.2,0.2,0.3
			C129.1,33.9,128.9,34.1,128.6,34.2z"/>
		<path fill="#422D11" d="M114.8,45.4c-0.3,0-0.6,0-0.9,0c-0.6,0-1-0.1-1.5-0.2c-0.8-0.2-1.5-0.7-1.9-1c-0.3-0.3-0.6-0.6-0.9-0.9
			c-0.7-0.7-1-1.5-1.1-2.5c-0.1-1.2,0-2.3,0.5-3.4c0.5-1.2,1.3-2.4,2.4-3.7l0.3-0.4c0.2-0.2,0.4-0.4,0.5-0.6c0.3-0.4,0.6-0.7,1-1
			c0.2-0.2,0.4-0.4,0.6-0.7c0.6-0.7,1.3-1.3,1.9-1.8c0.2-0.2,0.5-0.4,0.8-0.6l0.9-0.7c0.3-0.3,0.6-0.5,1-0.8l0.1-0.1
			c0.4-0.3,0.8-0.6,1.2-0.8c0.3-0.1,0.5-0.3,0.7-0.5c0.1-0.1,0.3-0.2,0.4-0.3l0.7-0.5c0.3-0.2,0.7-0.5,1-0.7c-0.4-1.1-0.8-2.1-1.3-3
			c-0.2-0.4-0.4-0.8-0.5-1.3l-0.2-0.4c-0.1-0.2-0.1-0.4-0.2-0.6l-0.1-0.2c-0.1-0.2-0.1-0.3-0.1-0.5c-0.1-0.7-0.2-1.4-0.2-2.1
			c0-0.7,0.1-1.3,0.2-1.9c0.1-0.3,0.1-0.5,0.2-0.7c0-0.1,0.1-0.2,0.1-0.3c0.4-1.2,0.9-2.4,1.8-3.7c0.6-1,1.4-1.8,2.2-2.6
			c0.4-0.4,0.9-0.9,1.5-1.2c0.3-0.3,0.7-0.6,1-0.8l0.3-0.2c0.7-0.4,1.4-0.8,2.1-1c0.3-0.1,0.7-0.2,1-0.3l0.5-0.2
			c0.2-0.1,0.3-0.1,0.5-0.1l0.1,0c1-0.1,2.1-0.2,3-0.1c0.2,0,0.4,0.1,0.6,0.1c0.4,0,0.7,0.1,1.1,0.2c0.8,0.2,1.5,0.5,2.2,0.8
			l0.5,0.2c0.9,0.4,1.7,0.9,2.4,1.4c0.5,0.3,0.8,0.7,1.2,1.1c0.1,0.1,0.3,0.3,0.4,0.4l0.1,0.1c0.5,0.9,1.1,1.9,1.1,3.2
			c0,0.4-0.1,0.8-0.2,1.2c-0.2,0.5-0.4,0.9-0.7,1.3c-0.5,0.7-1,1.4-1.5,2c-0.1,0.1-0.2,0.2-0.3,0.3c-0.1,0.2-0.2,0.3-0.4,0.4
			c-0.2,0.2-0.4,0.4-0.6,0.6c-0.4,0.4-0.9,0.7-1.3,1.1l-0.8,0.7c-0.1,0.1-0.2,0.1-0.2,0.2c-0.1,0.1-0.2,0.2-0.3,0.2
			c-0.5,0.4-0.9,0.7-1.4,1.1c-0.4,0.3-0.7,0.6-1.1,0.8l-0.6,0.4c-0.3,0.2-0.6,0.4-0.9,0.7l-0.6,0.4c-0.3,0.2-0.6,0.4-0.9,0.6
			c-0.7,0.6-1.5,1-2.2,1.5l-0.2,0.2c-0.5,0.3-0.9,0.6-1.4,0.9l-0.3,0.2c0.1,0.1,0.1,0.3,0.2,0.4c0.2,0.3,0.4,0.6,0.5,0.9
			c0.3,0.4,0.5,0.8,0.8,1.2c0.2,0.3,0.4,0.6,0.6,0.9c0.1,0.1,0.2,0.3,0.3,0.4c0.3,0.5,0.6,1,1,1.4l0,0c0.3-0.2,0.5-0.5,0.8-0.7
			c0.3-0.2,0.6-0.5,0.9-0.8c0.2-0.2,0.4-0.4,0.6-0.5c0.5-0.4,1-0.8,1.6-1.2c0.3-0.2,0.5-0.4,0.8-0.6c0.6-0.5,1.2-0.9,1.9-1.3
			c0.4-0.5,0.9-0.8,1.4-1.1c0.1-0.1,0.3-0.2,0.4-0.3c0.2-0.2,0.5-0.3,0.7-0.5l0.4-0.3c0.1-0.1,0.2-0.2,0.4-0.2l0.2-0.1
			c0.3-0.1,0.5-0.2,0.8-0.2c0.4,0,0.6,0.2,1,0.4l0.2,0.1c0.3,0.2,0.4,0.5,0.5,0.7l0,0.1c0.2,0.4,0.2,0.8,0,1.1l-0.1,0.2
			c-0.2,0.4-0.4,0.8-0.8,1.2c-0.1,0.1-0.3,0.3-0.4,0.4c-0.1,0.1-0.2,0.2-0.2,0.3c-0.2,0.2-0.3,0.3-0.4,0.4l-1,0.8
			c-0.5,0.4-1,0.8-1.5,1.2c-0.4,0.4-0.9,0.7-1.4,1c-0.3,0.2-0.6,0.4-0.9,0.7c-0.3,0.2-0.5,0.4-0.8,0.7l-0.5,0.4
			c-0.4,0.4-0.8,0.7-1.3,1.1c-0.2,0.2-0.4,0.3-0.6,0.5c0,0,0.1,0.1,0.1,0.1l0.6,0.6c0.5,0.5,1.1,1,1.6,1.4c0.3,0.3,0.6,0.6,0.9,0.9
			c0.4,0.4,0.8,0.7,1.2,1.1l0.3,0.2c0.4,0.4,0.8,0.8,1.1,1.1c0.2,0.3,0.4,0.5,0.4,0.8c0,0.1,0.1,0.1,0.1,0.2c0,0.1,0.1,0.2,0.1,0.4
			c0.1,0.3,0.1,0.5,0.1,0.7c0,0.8-0.5,1.3-1.2,1.4c-0.5,0.1-0.9,0-1.3-0.2c-1.8-1.1-3.4-2.3-4.8-3.5c-0.2-0.1-0.3-0.3-0.5-0.4
			c-0.7-0.5-1.3-1.1-1.9-1.7l-0.3-0.2c-0.8,0.6-1.6,1.2-2.3,1.7c-0.3,0.2-0.6,0.4-0.9,0.7l-0.3,0.2c-0.7,0.5-1.5,1-2.3,1.5
			c-0.3,0.3-0.6,0.4-0.9,0.6c-0.3,0.2-0.5,0.3-0.7,0.5c-0.1,0.1-0.3,0.2-0.3,0.2c-0.1,0.1-0.3,0.1-0.4,0.2c-0.2,0.1-0.3,0.2-0.5,0.3
			c-0.3,0.3-0.7,0.5-1,0.6c-0.3,0.1-0.7,0.3-1,0.5c-0.3,0.2-0.7,0.4-1.2,0.5c-0.1,0-0.3,0.1-0.4,0.2l-0.2,0.1
			c-0.5,0.2-1,0.4-1.5,0.5c-0.2,0-0.5,0.1-0.7,0.1c-0.2,0-0.3,0.1-0.5,0.1C115.6,45.3,115.2,45.4,114.8,45.4z M133.3,4.3
			c-0.6,0-1.1,0.1-1.7,0.2l-0.1,0c0,0-0.1,0-0.1,0l-0.6,0.2c-0.4,0.1-0.7,0.2-1.1,0.3c-0.6,0.2-1.2,0.4-1.7,0.8L127.7,6
			c-0.3,0.2-0.6,0.4-0.8,0.6l-0.2,0.2c-0.5,0.3-0.9,0.7-1.3,1.1c-0.7,0.7-1.4,1.5-2,2.4c-0.8,1.2-1.3,2.2-1.6,3.3
			c0,0.1-0.1,0.3-0.1,0.4c-0.1,0.2-0.1,0.3-0.2,0.5c-0.1,0.6-0.2,1.1-0.2,1.6c0,0.7,0.1,1.3,0.2,1.9c0,0.1,0,0.2,0.1,0.3l0,0.1
			c0.1,0.3,0.2,0.5,0.2,0.6l0.2,0.4c0.1,0.4,0.3,0.8,0.5,1.2c0.5,1.1,0.9,2.1,1.4,3.3c0,0.1,0.1,0.2,0.1,0.3l0.1,0.4l-0.3,0.3
			c-0.1,0.1-0.2,0.2-0.3,0.3c-0.4,0.3-0.8,0.5-1.2,0.8l-0.7,0.5c-0.1,0.1-0.2,0.2-0.3,0.3c-0.3,0.2-0.6,0.4-0.9,0.6
			c-0.4,0.2-0.7,0.5-1.1,0.8l-0.1,0.1c-0.3,0.2-0.6,0.5-0.9,0.7l-0.9,0.7c-0.2,0.2-0.5,0.4-0.7,0.5c-0.6,0.6-1.3,1.1-1.8,1.7
			c-0.2,0.3-0.5,0.5-0.7,0.7c-0.3,0.3-0.6,0.6-0.9,0.9c-0.2,0.2-0.4,0.4-0.6,0.7l-0.3,0.4c-1,1.2-1.7,2.3-2.2,3.4
			c-0.4,0.9-0.5,1.7-0.4,2.7c0.1,0.6,0.3,1.2,0.7,1.6c0.3,0.3,0.5,0.6,0.8,0.8c0.5,0.4,0.9,0.6,1.4,0.7c0.4,0.1,0.8,0.2,1.2,0.2
			c0.7,0,1.2,0.1,1.7,0l0.5-0.1c0.3-0.1,0.5-0.1,0.8-0.1c0.4-0.1,0.8-0.2,1.2-0.4l0.1-0.1c0.2-0.1,0.4-0.2,0.6-0.3
			c0.3-0.1,0.7-0.3,0.9-0.4c0.4-0.2,0.8-0.4,1.2-0.6c0.2-0.1,0.4-0.2,0.6-0.4c0.2-0.2,0.5-0.3,0.7-0.4c0.1-0.1,0.2-0.1,0.3-0.2
			c0.1,0,0.2-0.1,0.2-0.1c0.3-0.2,0.6-0.4,0.9-0.6c0.3-0.2,0.6-0.3,0.8-0.5l0.1-0.1c0.7-0.4,1.4-0.9,2.2-1.4l0.3-0.2
			c0.3-0.2,0.6-0.4,1-0.7c0.9-0.6,1.7-1.2,2.5-1.9c0.2-0.2,0.5-0.3,0.7-0.3c0.2,0,0.4,0,0.7,0.3l0.5,0.5c0.6,0.6,1.2,1.1,1.8,1.6
			c0.2,0.2,0.4,0.3,0.6,0.5c1.3,1.2,2.8,2.3,4.6,3.4c0.1,0.1,0.2,0.1,0.4,0.1c0-0.1,0-0.2,0-0.4c0-0.1-0.1-0.1-0.1-0.2
			c0-0.1-0.1-0.2-0.1-0.4c0-0.1-0.1-0.2-0.2-0.3c-0.3-0.3-0.6-0.6-1-1l-0.3-0.2c-0.4-0.4-0.9-0.7-1.3-1.1c-0.3-0.3-0.6-0.5-0.9-0.8
			c-0.6-0.5-1.1-1-1.7-1.5l-0.6-0.5c-0.1-0.1-0.2-0.2-0.4-0.3c-0.5-0.5-0.4-1.1,0.1-1.6c0.3-0.3,0.5-0.5,0.8-0.7
			c0.4-0.4,0.8-0.7,1.3-1.1l0.4-0.4c0.3-0.2,0.6-0.5,0.9-0.7c0.3-0.2,0.7-0.5,1-0.7c0.5-0.3,0.9-0.6,1.3-0.9c0.5-0.4,1-0.8,1.5-1.2
			l1-0.8c0.1-0.1,0.1-0.1,0.2-0.2L142,26c0.2-0.2,0.3-0.4,0.5-0.5c0.2-0.2,0.4-0.5,0.5-0.8l0-0.1l0,0c0,0-0.1-0.1-0.1-0.1l-0.2-0.1
			c-0.1-0.1-0.2-0.1-0.2-0.1c0,0-0.1,0-0.2,0.1l-0.3,0.1c0,0-0.1,0.1-0.1,0.1l-0.5,0.3c-0.2,0.2-0.5,0.3-0.7,0.5
			c-0.2,0.1-0.3,0.2-0.5,0.3c-0.4,0.2-0.8,0.5-1.1,0.8c-0.1,0.1-0.3,0.2-0.3,0.3c-0.6,0.3-1.1,0.8-1.7,1.2c-0.3,0.2-0.5,0.4-0.8,0.6
			c-0.5,0.4-1,0.8-1.5,1.2c-0.2,0.2-0.4,0.3-0.6,0.5c-0.3,0.3-0.6,0.6-1,0.8c-0.3,0.2-0.5,0.4-0.8,0.6l-0.2,0.1
			c-0.2,0.2-0.5,0.4-0.9,0.4h-0.3L131,32c-0.1-0.1-0.2-0.2-0.3-0.3c-0.4-0.6-0.8-1.1-1.2-1.7c-0.1-0.2-0.2-0.3-0.3-0.5
			c-0.2-0.3-0.3-0.5-0.5-0.7c-0.4-0.4-0.6-0.9-0.9-1.3c-0.2-0.3-0.3-0.5-0.5-0.8c-0.2-0.2-0.3-0.5-0.4-0.7l-0.1-0.2
			c-0.2-0.4,0-1,0.4-1.3l0.5-0.3c0.5-0.3,0.9-0.6,1.4-0.9l0.2-0.2c0.7-0.5,1.5-0.9,2.1-1.5c0.3-0.2,0.6-0.4,0.9-0.7l0.6-0.4
			c0.3-0.2,0.6-0.4,0.8-0.6l0.6-0.4c0.4-0.3,0.8-0.6,1.1-0.9c0.4-0.3,0.9-0.6,1.3-1c0.1-0.1,0.2-0.1,0.2-0.2
			c0.1-0.1,0.2-0.2,0.3-0.3l0.8-0.7c0.4-0.4,0.8-0.7,1.3-1.1c0.2-0.1,0.3-0.3,0.4-0.4c0.1-0.1,0.2-0.3,0.3-0.4
			c0.1-0.1,0.2-0.2,0.3-0.3c0.5-0.6,1-1.2,1.4-1.9c0.2-0.3,0.4-0.7,0.5-1c0.1-0.2,0.1-0.4,0.1-0.7c0-0.9-0.4-1.7-0.9-2.4
			c-0.1-0.1-0.3-0.3-0.4-0.4c-0.3-0.3-0.6-0.6-0.9-0.8c-0.8-0.6-1.5-1-2.2-1.3l-0.5-0.2c-0.7-0.3-1.3-0.6-2-0.7
			c-0.3-0.1-0.6-0.1-0.9-0.2c-0.2,0-0.5-0.1-0.7-0.1C133.9,4.3,133.7,4.3,133.3,4.3z M114.7,42.8c-0.5,0-0.9-0.1-1.3-0.2
			c-0.6-0.1-1-0.5-1.3-1.1c-0.4-0.8-0.5-1.7-0.2-2.6c0.3-0.8,0.5-1.4,0.8-1.9c0.5-0.8,1-1.6,1.7-2.4c1.1-1.3,2.2-2.4,3.3-3.4
			c0.9-0.8,1.9-1.7,3-2.5c0.2-0.1,0.3-0.2,0.4-0.3c0.5-0.3,0.9-0.6,1.4-0.9c0.3-0.2,0.6-0.4,0.9-0.6c0.1-0.1,0.2-0.1,0.3-0.2
			c0.3-0.2,0.6-0.3,0.9-0.3c0.6,0,0.9,0.5,1.1,0.9c0.3,0.6,0.7,1.2,1.2,1.9c0.2,0.3,0.4,0.6,0.6,0.9c0.3,0.5,0.6,1,1,1.5
			c0.2,0.3,0.4,0.6,0.6,0.9l0.4,0.5c0.1,0.1,0.1,0.2,0.2,0.2l0.2,0.2l0,0.4c-0.1,0.4-0.4,0.8-0.8,1.1c-0.3,0.2-0.7,0.5-1,0.7
			c-0.3,0.2-0.6,0.5-0.9,0.7c-0.3,0.2-0.6,0.4-0.8,0.6c-0.4,0.3-0.9,0.7-1.4,1c-0.5,0.3-1,0.6-1.4,1c-0.4,0.3-0.9,0.6-1.4,0.9
			l-0.1,0.1c-1,0.6-2.1,1.3-3.2,1.9c-1,0.5-1.9,0.8-2.8,1l-0.1,0c-0.1,0-0.1,0-0.2,0C115.4,42.7,115.1,42.8,114.7,42.8z M124.5,27.9
			C124.5,27.9,124.5,27.9,124.5,27.9c-0.1,0.1-0.2,0.1-0.3,0.2c-0.3,0.2-0.6,0.4-0.9,0.6c-0.5,0.3-1,0.7-1.5,1c0,0-0.1,0-0.1,0.1
			l-0.1,0.1c-1,0.8-2,1.6-2.9,2.4c-1.1,0.9-2.1,2-3.1,3.2c-0.6,0.8-1.2,1.5-1.6,2.2c-0.3,0.4-0.5,0.9-0.7,1.6
			c-0.2,0.5-0.1,1,0.1,1.5c0.1,0.2,0.3,0.3,0.4,0.3c0.5,0.1,1,0.2,1.5,0.1c0.1,0,0.3-0.1,0.4-0.1l0.1,0c0.8-0.1,1.6-0.4,2.4-0.8
			c1.1-0.5,2.1-1.2,3.1-1.8l0.1-0.1c0.4-0.3,0.9-0.6,1.3-0.9c0.5-0.3,1-0.7,1.5-1c0.4-0.2,0.8-0.6,1.2-0.9c0.3-0.2,0.6-0.5,0.9-0.7
			c0.3-0.2,0.5-0.4,0.8-0.6c0.4-0.3,0.7-0.6,1.1-0.9c0,0,0,0,0,0l-0.3-0.3c-0.2-0.3-0.5-0.6-0.7-0.9c-0.3-0.5-0.7-1-1-1.5
			c-0.2-0.3-0.4-0.6-0.6-0.9C125.4,29.3,124.9,28.7,124.5,27.9C124.5,28,124.5,27.9,124.5,27.9z M126.4,23.2c-0.3,0-0.7-0.2-0.8-0.5
			l-0.2-0.3c-0.2-0.3-0.3-0.7-0.5-1l-0.1-0.2c-0.2-0.4-0.4-0.8-0.5-1.3c-0.1-0.3-0.2-0.6-0.3-0.8c-0.1-0.2-0.1-0.3-0.2-0.5l-0.1-0.4
			c-0.3-0.9-0.3-1.9-0.1-2.9c0-0.1,0-0.3,0.1-0.4c0.1-0.3,0.1-0.6,0.2-1c0.3-1,0.8-2,1.5-3c0.8-1.2,1.7-2.2,2.7-3
			c0.6-0.5,1-0.8,1.5-1.1c0.6-0.4,1.4-0.7,2.3-0.9c0.6-0.1,1.2-0.2,1.6-0.2c0,0,0.2,0,0.3,0c1,0,1.8,0.2,2.5,0.5
			c1.3,0.4,2.4,1.1,3.2,1.8c0.3,0.2,0.5,0.5,0.7,0.9l0.1,0.1c0,0.1,0.1,0.2,0.1,0.2c0.4,0.4,0.5,0.9,0.3,1.4c-0.2,0.5-0.3,1-0.6,1.4
			c-0.3,0.6-0.7,1.1-1.2,1.6c-0.2,0.2-0.4,0.4-0.5,0.6c-0.2,0.2-0.4,0.4-0.5,0.6c-0.8,0.8-1.6,1.5-2.3,2l-0.3,0.2
			c-0.2,0.1-0.3,0.2-0.5,0.3l-0.3,0.2c-0.4,0.3-0.8,0.7-1.3,0.9c-0.2,0.1-0.4,0.3-0.6,0.5c-0.1,0.1-0.2,0.2-0.3,0.3l-0.7,0.5
			c-0.6,0.4-1.1,0.9-1.7,1.3l-0.3,0.2c-0.5,0.3-1,0.7-1.5,1c-0.1,0.1-0.3,0.2-0.4,0.3c-0.1,0.1-0.2,0.2-0.3,0.2
			c-0.2,0.1-0.3,0.2-0.5,0.3l-0.3,0.2L126.4,23.2z M133.3,7.1c-0.3,0-0.7,0-1.1,0.1c-0.8,0.2-1.4,0.4-1.9,0.7
			c-0.4,0.3-0.9,0.6-1.4,1c-0.9,0.7-1.7,1.7-2.5,2.7c-0.6,0.9-1,1.8-1.3,2.7c-0.1,0.3-0.1,0.5-0.2,0.8c0,0.1-0.1,0.3-0.1,0.4
			c-0.2,0.8-0.1,1.5,0.1,2.2l0.1,0.4c0,0.1,0.1,0.3,0.2,0.4c0.1,0.3,0.2,0.6,0.3,1c0.1,0.3,0.2,0.7,0.4,1l0.1,0.3
			c0.1,0.3,0.3,0.6,0.4,0.8c0,0,0.1,0,0.1-0.1c0.1-0.1,0.2-0.1,0.3-0.2c0.2-0.1,0.4-0.3,0.6-0.4c0.5-0.2,0.9-0.5,1.3-0.8l0.3-0.2
			c0.6-0.4,1.1-0.8,1.6-1.2l0.7-0.5c0.1-0.1,0.2-0.2,0.3-0.3c0.2-0.2,0.5-0.4,0.8-0.6c0.4-0.2,0.8-0.5,1.1-0.8l0.3-0.2
			c0.2-0.1,0.3-0.3,0.5-0.4l0.3-0.2c0.7-0.5,1.4-1.2,2.2-1.9c0.2-0.2,0.3-0.3,0.5-0.5c0.2-0.2,0.4-0.4,0.6-0.6
			c0.4-0.4,0.7-0.9,1-1.3c0.2-0.3,0.3-0.6,0.4-1l0-0.2c-0.2-0.2-0.3-0.4-0.4-0.6l0-0.1c-0.1-0.1-0.2-0.3-0.3-0.4
			c-0.8-0.6-1.7-1.2-2.8-1.6c-0.7-0.2-1.5-0.5-2.4-0.4L133.3,7.1z"/>
	</g>
	<g>
		<path fill="#422D11" d="M31.4,32.6c0.1,0.2,0.1,0.5,0.1,0.7c0,0.4,0,0.8,0.1,1.1c0,0.1,0.1,0.2,0.1,0.4c0,0.2,0.1,0.4,0.2,0.6
			c0.1,0.4,0.3,0.7,0.6,1.1c0.3,0.5,0.6,1,1.1,1.4c0.5,0.4,1,0.9,1.5,1.2c0.2,0.1,0.4,0.2,0.6,0.3c0.6,0.2,1.2,0.3,1.8,0.4
			c1.4,0.1,2.8-0.1,4.2-0.3c0.4-0.1,0.8-0.2,1.2-0.3c0.3-0.1,0.6-0.2,0.9-0.3c0.6-0.2,1.1-0.4,1.7-0.6c0.4-0.1,0.7-0.3,1.1-0.5
			c0.6-0.3,1.1-0.6,1.6-1c0.3-0.2,0.6-0.4,0.9-0.6c1-0.8,2-1.6,2.7-2.6c0.7-0.9,1.3-1.8,1.8-2.8c0.4-0.9,0.7-1.8,0.9-2.7
			c0-0.2,0-0.4,0.1-0.6c0.1-0.8,0.1-1.7-0.1-2.5c-0.3-1.2-0.7-2.4-1.3-3.4c-0.3-0.5-0.7-1-1.1-1.5c-0.4-0.5-0.8-0.9-1.3-1.4
			c-0.1-0.2-0.3-0.3-0.5-0.5c-0.2-0.2-0.5-0.4-0.7-0.6c-0.3-0.2-0.6-0.3-0.9-0.5c-0.6-0.4-1.3-0.7-2-0.9c-0.2-0.1-0.3-0.1-0.5-0.1
			c-0.5,0-0.9-0.1-1.4-0.2c0,0-0.1,0-0.1,0c-0.7,0-0.7-0.1-1.2,0.4c-0.4,0.3-0.5,0.3-0.6,1.1c-0.2,0-0.3,0-0.5,0
			c-0.2,0-0.4,0-0.6,0.1c-0.5,0.2-1.1,0.5-1.5,0.8c-0.1,0.1-0.2,0.1-0.2,0.2c-0.3,0.1-0.5,0.3-0.7,0.6c-0.1,0.1-0.2,0.2-0.3,0.3
			c-0.8,0.7-1.6,1.5-2.2,2.4c-0.5,0.7-1,1.4-1.5,2.2c-0.2,0.3-0.3,0.6-0.6,0.9c-0.6,0.8-1,1.7-1.4,2.5c0,0.1-0.1,0.2-0.1,0.3
			c-0.1,0.2-0.2,0.4-0.3,0.6c-0.1,0.2-0.2,0.4-0.3,0.6c-0.5,1.1-0.7,2.3-0.9,3.5C31.3,32.4,31.4,32.5,31.4,32.6z M34.3,33
			c0-0.1,0-0.2,0.1-0.4c0.1-0.5,0.2-1,0.4-1.5c0.1-0.2,0.1-0.5,0.2-0.7c0.1-0.2,0.3-0.4,0.3-0.7c0-0.1,0-0.1,0.1-0.2
			c0.3-0.7,0.7-1.4,1.1-2.1c0.5-1,1.1-1.9,1.8-2.8c0.2-0.3,0.4-0.6,0.6-0.9c0.3-0.5,0.7-1,1.1-1.4c0.6-0.6,1.1-1.2,1.8-1.8
			c0.3-0.3,0.7-0.4,1-0.8c0.1-0.1,0.2-0.1,0.3-0.1c0.1-0.1,0.3-0.1,0.4-0.2c0.3-0.1,0.4-0.3,0.5-0.6c0-0.1,0-0.2,0.1-0.4
			c0-0.2,0.1-0.2,0.3-0.3c0.7,0,1.3,0.1,1.9,0.3c0.5,0.2,0.9,0.3,1.4,0.6c0.4,0.3,0.8,0.6,1.2,0.9c0.7,0.6,1.4,1.4,1.9,2.1
			c1,1.4,1.4,3,1.1,4.6c0,0.2-0.1,0.4-0.1,0.6c0,0.3-0.1,0.5-0.2,0.8c-0.1,0.2-0.1,0.4-0.2,0.5c-0.2,0.5-0.4,1-0.7,1.4
			c-0.3,0.5-0.6,1-1,1.4c-0.6,0.7-1.2,1.4-1.9,2c-0.2,0.1-0.3,0.3-0.5,0.4c-0.2,0.1-0.4,0.2-0.5,0.4c-1.2,0.9-2.6,1.6-4.1,2.1
			c-0.8,0.2-1.5,0.5-2.3,0.6c-0.6,0.1-1.1,0.2-1.7,0.2c-0.4,0.1-0.8,0.1-1.1,0c-0.2,0-0.4,0-0.6-0.1c-0.1,0-0.1,0-0.2-0.1
			c-0.3-0.2-0.6-0.3-0.9-0.5c-0.7-0.4-1.1-1-1.3-1.8C34.1,34.2,34.1,33.6,34.3,33z"/>
		<path fill="#422D11" d="M38.1,40.5c-0.2,0-0.5,0-0.7,0c-0.7,0-1.4-0.2-2-0.4c-0.2-0.1-0.5-0.2-0.8-0.4c-0.5-0.4-1.1-0.8-1.6-1.3
			c-0.5-0.5-0.8-1-1.2-1.5c-0.2-0.4-0.5-0.8-0.6-1.2l0-0.1c-0.1-0.2-0.2-0.4-0.2-0.7c0,0,0-0.1,0-0.1c-0.2-0.6-0.2-1-0.2-1.5
			c0-0.1,0-0.3,0-0.4c-0.1-0.2-0.1-0.5,0-0.7c0.3-1.3,0.5-2.5,1-3.6c0.1-0.2,0.2-0.5,0.4-0.7c0.1-0.2,0.2-0.3,0.2-0.4
			c0-0.1,0.1-0.3,0.2-0.4c0.1-0.3,0.3-0.5,0.4-0.8c0.3-0.6,0.6-1.2,1.1-1.8c0.1-0.2,0.2-0.4,0.4-0.6l0.2-0.3
			c0.5-0.9,1.1-1.6,1.5-2.3c0.6-0.8,1.3-1.6,2.3-2.5c0.1-0.1,0.2-0.2,0.3-0.3c0.2-0.3,0.5-0.5,1-0.7c0,0,0,0,0.1-0.1
			c0.5-0.4,1.2-0.7,1.7-0.9c0.2-0.1,0.5-0.2,0.8-0.2h0c0.1-0.4,0.3-0.6,0.6-0.8l0.1-0.1c0.5-0.4,0.7-0.6,1.3-0.6l0.5,0
			c0.3,0,0.6,0.1,0.9,0.1c0.2,0,0.3,0,0.5,0.1c0.2,0,0.5,0.1,0.6,0.1c0.7,0.2,1.5,0.5,2.2,1c0.3,0.2,0.5,0.3,0.8,0.5
			c0.3,0.2,0.6,0.4,0.9,0.6c0.2,0.2,0.3,0.3,0.5,0.5l0.2,0.3c0.4,0.4,0.7,0.8,1,1.2c0.4,0.5,0.8,1.1,1.1,1.6c0.6,1,1.1,2.2,1.4,3.6
			c0.2,0.9,0.2,1.9,0.1,2.8c0,0.1,0,0.2,0,0.3c0,0.1,0,0.3,0,0.4c-0.2,1-0.5,2-0.9,2.9C53.6,32,53,33,52.2,34
			c-0.7,1-1.7,1.9-2.9,2.8c-0.2,0.1-0.3,0.2-0.5,0.3c-0.1,0.1-0.3,0.2-0.4,0.3c-0.6,0.4-1.2,0.8-1.7,1c-0.4,0.2-0.8,0.4-1.2,0.5
			c-0.3,0.1-0.6,0.2-1,0.3c-0.2,0.1-0.5,0.2-0.7,0.3c-0.3,0.1-0.6,0.2-1,0.3l-0.1,0c-0.4,0.1-0.8,0.2-1.1,0.3
			C40.4,40.4,39.2,40.5,38.1,40.5z M42.1,18c-0.1,0-0.2,0-0.3,0.1c-0.5,0.2-0.9,0.4-1.3,0.7c-0.1,0.1-0.2,0.2-0.4,0.3
			c-0.2,0.1-0.3,0.2-0.5,0.4c-0.1,0.1-0.2,0.2-0.3,0.3c-0.9,0.8-1.6,1.5-2.1,2.3c-0.5,0.6-1,1.3-1.5,2.1l-0.1,0.3
			c-0.1,0.2-0.3,0.5-0.4,0.7c-0.4,0.5-0.7,1-1,1.6c-0.1,0.3-0.3,0.5-0.5,0.8c-0.1,0.5-0.3,0.7-0.5,0.9c-0.1,0.2-0.2,0.3-0.2,0.4
			c-0.4,1-0.7,2.1-0.9,3.4c0.1,0.4,0.1,0.7,0.1,1c0,0.3,0,0.5,0.1,0.9c0.1,0.2,0.1,0.3,0.1,0.5c0,0.1,0,0.2,0.1,0.3l0.1,0.2
			c0.1,0.3,0.3,0.6,0.5,0.9c0.3,0.4,0.6,0.9,0.9,1.2c0.5,0.5,1,0.8,1.4,1.2c0.1,0.1,0.3,0.2,0.4,0.2c0.5,0.1,1.1,0.3,1.7,0.3
			c1.3,0.1,2.6,0,4-0.3c0.3-0.1,0.7-0.1,1-0.2l0.1,0c0.3-0.1,0.6-0.1,0.8-0.2c0.2-0.1,0.5-0.2,0.7-0.2c0.3-0.1,0.7-0.3,1-0.4
			c0.3-0.1,0.6-0.2,0.9-0.4c0.5-0.3,1-0.6,1.5-0.9c0.1-0.1,0.3-0.2,0.4-0.3c0.1-0.1,0.3-0.2,0.4-0.3c1.1-0.8,1.9-1.6,2.6-2.5
			c0.8-1,1.3-1.8,1.7-2.7c0.4-0.8,0.7-1.7,0.8-2.6c0-0.1,0-0.2,0-0.3c0-0.1,0-0.2,0-0.4c0.1-0.7,0.1-1.5-0.1-2.3
			c-0.3-1.3-0.7-2.3-1.2-3.2c-0.3-0.5-0.7-1-1-1.5c-0.3-0.4-0.6-0.7-1-1.1L50,19c-0.1-0.1-0.3-0.3-0.4-0.4c-0.2-0.2-0.4-0.3-0.6-0.5
			c-0.3-0.2-0.6-0.4-0.9-0.5c-0.6-0.4-1.3-0.6-1.9-0.8c-0.1,0-0.2-0.1-0.3-0.1c-0.2,0-0.3,0-0.5-0.1c-0.3,0-0.5-0.1-0.8-0.1
			l-0.1-0.7l0,0.7l-0.3,0c-0.1,0-0.3,0.2-0.4,0.2l-0.2,0.1c0,0-0.1,0.1-0.1,0.1c0,0,0,0.1-0.1,0.4L43.2,18l-0.7,0
			c-0.1,0-0.2,0-0.3,0L42.1,18C42.1,18,42.1,18,42.1,18z M37.7,37.9c-0.2,0-0.4,0-0.6,0c-0.2,0-0.4,0-0.6-0.1
			c-0.2,0-0.3-0.1-0.5-0.1l-0.2-0.1c-0.3-0.1-0.5-0.3-0.8-0.4c-0.9-0.6-1.4-1.3-1.6-2.3c-0.2-0.8-0.1-1.5,0-2.1c0-0.1,0-0.1,0-0.2
			l0-0.1c0.1-0.5,0.2-1.1,0.4-1.6c0.1-0.2,0.1-0.4,0.2-0.5c0.1-0.3,0.1-0.4,0.2-0.5c0,0,0-0.1,0.1-0.1c0-0.2,0.1-0.3,0.1-0.4
			l1.1-2.1c0.5-0.9,1.1-1.8,1.6-2.6l0.4-0.6c0.1-0.2,0.3-0.4,0.4-0.6c0.4-0.6,0.8-1.1,1.2-1.5c0.5-0.6,1.1-1.3,1.8-1.8
			c0.1-0.1,0.3-0.2,0.4-0.3c0.2-0.1,0.3-0.2,0.5-0.4c0.2-0.2,0.3-0.2,0.4-0.3l0.4-0.2c0.1,0,0.1-0.1,0.1-0.1l0-0.1
			c0-0.1,0-0.2,0.1-0.3c0.1-0.5,0.5-0.8,0.9-0.8l0.2,0c0.6,0,1.2,0.1,1.7,0.2l0.4,0.1c0.2,0.1,0.3,0.1,0.5,0.2
			c0.3,0.1,0.6,0.2,0.9,0.4c0.5,0.3,1,0.6,1.3,1c0.8,0.7,1.4,1.4,2,2.2c1.1,1.5,1.5,3.2,1.3,5.1c0,0.1,0,0.2-0.1,0.4l0,0.2
			c-0.1,0.4-0.1,0.7-0.3,1c0,0.1-0.1,0.2-0.1,0.3l-0.2,0.4c-0.2,0.4-0.4,0.9-0.6,1.3c-0.3,0.5-0.7,1-1.1,1.5c-0.5,0.6-1.2,1.3-2,2
			c-0.2,0.2-0.4,0.3-0.6,0.5c-0.1,0.1-0.2,0.2-0.4,0.3l-0.1,0.1c-1.2,1-2.7,1.7-4.3,2.2c-0.7,0.2-1.5,0.5-2.4,0.6l-0.3,0.1
			c-0.5,0.1-0.9,0.2-1.4,0.1C38.2,37.9,38,37.9,37.7,37.9z M35.9,29.9c0,0.3-0.1,0.5-0.2,0.6c0,0,0,0.1-0.1,0.1
			c-0.1,0.3-0.1,0.5-0.2,0.8c-0.2,0.4-0.3,0.9-0.4,1.4l0,0.1c0,0.1,0,0.2-0.1,0.3c-0.1,0.4-0.1,0.9,0,1.5c0.1,0.6,0.4,1,1,1.4
			c0.2,0.1,0.4,0.3,0.7,0.4l0.2,0.1c0.1,0,0.3,0,0.5,0c0.3,0,0.7,0,0.9,0l0.1,0l0.3,0c0.3,0,0.7-0.1,1.1-0.1l0.3-0.1
			c0.8-0.1,1.5-0.3,2.2-0.6c1.5-0.5,2.8-1.1,3.9-2c0.2-0.2,0.4-0.3,0.6-0.4c0.1-0.1,0.2-0.2,0.4-0.3c0.7-0.6,1.3-1.3,1.8-1.9
			c0.3-0.4,0.6-0.8,0.9-1.3c0.2-0.3,0.4-0.7,0.5-1.1l0.1-0.4c0.1-0.1,0.1-0.3,0.2-0.4c0.1-0.2,0.1-0.3,0.2-0.5l0-0.3
			c0-0.1,0-0.2,0-0.3c0.2-1.6-0.1-2.9-1-4.1c-0.5-0.7-1.1-1.4-1.8-2c-0.3-0.3-0.7-0.5-1.1-0.8c-0.2-0.1-0.4-0.2-0.7-0.3
			c-0.2-0.1-0.4-0.1-0.6-0.2l-0.1,0c-0.4-0.1-0.8-0.2-1.2-0.2l0,0c-0.1,0.3-0.3,0.8-0.9,1.1L43,20.4c-0.2,0.2-0.4,0.4-0.6,0.5
			c-0.1,0.1-0.2,0.2-0.3,0.2c-0.6,0.5-1.2,1.1-1.7,1.7c-0.3,0.4-0.7,0.8-1,1.3c-0.1,0.2-0.3,0.4-0.4,0.6l-0.4,0.6
			c-0.6,0.8-1.1,1.6-1.5,2.5L35.9,29.9C35.9,29.9,35.9,29.9,35.9,29.9z"/>
	</g>
	<g>
		<path fill="#422D11" d="M194.3,20.6c-0.1-0.3-0.3-0.6-0.5-0.8c-0.4-0.5-0.8-0.9-1.3-1.4c-0.5-0.5-1.1-0.9-1.7-1.2
			c-0.2-0.1-0.5-0.3-0.7-0.4c-0.6-0.2-1.1-0.4-1.7-0.5c-0.4-0.1-0.9-0.2-1.3-0.2c-0.1,0-0.2,0-0.3-0.1c0.1-0.3,0.1-0.6,0.2-0.9
			c-0.1-0.3-0.3-0.4-0.3-0.6c-0.2-0.3-0.3-0.6-0.6-0.8c-0.5-0.5-1.1-0.9-1.9-0.9c-0.4,0-0.7,0-1.1,0.1c-0.6,0.2-1.2,0.5-1.7,0.9
			c-0.4,0.3-0.7,0.6-1.1,0.9c-0.2,0.2-0.5,0.4-0.7,0.7c-0.6,0.7-1.1,1.3-1.6,2c-0.1,0.1-0.1,0.2-0.2,0.2c-0.3,0.3-0.6,0.7-0.8,1.1
			c-0.1,0.1-0.2,0.3-0.3,0.5c-0.1,0.2-0.2,0.4-0.3,0.6c-0.1,0.2-0.1,0.3-0.2,0.5c-0.3,0.5-0.5,1-0.7,1.6c-0.1,0.2-0.2,0.5-0.3,0.7
			c-0.1,0.1-0.1,0.3-0.2,0.5c-0.2,0.7-0.4,1.3-0.7,2c-0.1,0.2-0.1,0.4-0.2,0.7c-0.1,0.3-0.2,0.7-0.3,1c-0.2,0.9-0.4,1.8-0.5,2.7
			c-0.2,1.2-0.1,2.4,0.2,3.5c0.1,0.2,0.1,0.4,0.2,0.5c0.1,0.7,0.5,1.3,0.9,1.9c0.7,1,1.7,1.7,2.8,2.3c0.3,0,0.6,0.2,0.9,0.3
			c0.7,0.1,1.3,0.1,2,0c0.7-0.1,1.3-0.2,2-0.5c0.5-0.2,0.9-0.3,1.4-0.5c0.1,0,0.2-0.1,0.3-0.1c0.3-0.1,0.6-0.2,0.9-0.4
			c0.6-0.3,1.2-0.7,1.8-1.1c0.1-0.1,0.2-0.2,0.3-0.2c0.1-0.1,0.2-0.2,0.3-0.2c0.6-0.4,1.1-0.8,1.7-1.2c0.4-0.3,0.8-0.7,1.2-1
			c0.5-0.4,1-0.9,1.4-1.4c0.1-0.1,0.1-0.2,0.2-0.2c0.3-0.2,0.4-0.5,0.6-0.7c0.1-0.2,0.3-0.4,0.4-0.6c0.2-0.3,0.5-0.7,0.7-1.1
			c0.2-0.3,0.4-0.7,0.5-1.1c0.1-0.3,0.2-0.7,0.3-1c0.1-0.4,0.2-0.8,0.3-1.2c0.1-0.4,0.1-0.9,0.1-1.3c0-0.1,0-0.3,0-0.4
			C194.9,22.5,194.7,21.6,194.3,20.6C194.3,20.6,194.3,20.6,194.3,20.6z M192.4,23.6c0,0.7-0.2,1.3-0.4,2c-0.1,0.3-0.3,0.6-0.4,1
			c0,0.1-0.1,0.2-0.1,0.2c-0.4,0.7-0.8,1.3-1.3,2c-0.6,0.7-1.2,1.5-1.9,2c-0.2,0.2-0.4,0.4-0.6,0.6c-0.8,0.7-1.7,1.3-2.6,1.9
			c-0.6,0.4-1.1,0.7-1.7,1.1c-0.8,0.4-1.5,0.8-2.3,1.1c-0.6,0.2-1.1,0.3-1.7,0.2c-0.8-0.1-1.4-0.4-2-0.8c-0.4-0.3-0.7-0.5-0.9-0.9
			c-0.4-0.6-0.5-1.2-0.6-1.9c0-0.7,0-1.3,0.1-2c0.1-0.4,0.2-0.9,0.3-1.3c0.1-0.3,0.1-0.6,0.2-0.9c0.1-0.2,0.1-0.5,0.2-0.7
			c0.3-1,0.6-1.9,0.9-2.8c0,0,0-0.1,0.1-0.1c0.4-0.8,0.7-1.6,1.1-2.4c0.2-0.5,0.4-0.9,0.7-1.4c0.1-0.1,0.1-0.2,0.2-0.3
			c0.3-0.6,0.7-1.1,1-1.7c0.4-0.6,0.8-1.2,1.3-1.7c0.1-0.1,0.3-0.3,0.4-0.4c0.5-0.5,1.1-0.9,1.7-1.2c0.2-0.1,0.4-0.2,0.6-0.2
			c0.1,0,0.2,0,0.3,0.1c0.3,0.3,0.6,0.6,0.9,0.8c0.1,0.1,0,0.3-0.1,0.3c-0.3,0.1-0.6,0.1-0.9,0.2c-0.3,0.1-0.6,0.1-0.9,0.3
			c-0.2,0.2-0.5,0.3-0.8,0.3c-0.3,0.1-0.5,0.2-0.7,0.4c0,0-0.1,0.1,0,0.1c0,0.2,0.1,0.3,0.2,0.5c0.2,0,0.4,0.1,0.5,0.1
			c0.2,0,0.3,0.2,0.5,0.2c0.3,0,0.6,0.1,1,0.2c0.1,0,0.2,0,0.3,0c0.3-0.1,0.6-0.1,0.9,0c0.3,0,0.5,0.1,0.8,0c0.4,0,0.8,0,1.2,0.1
			c0.4,0.1,0.9,0.1,1.3,0.3c0.2,0.1,0.4,0.2,0.6,0.3c0.6,0.4,1.2,0.8,1.8,1.3c0.4,0.4,0.6,0.8,0.8,1.3
			C192.4,22.3,192.4,22.9,192.4,23.6z"/>
		<path fill="#422D11" d="M179.7,38.6c-0.4,0-0.8,0-1.3-0.1c-0.2,0-0.4-0.1-0.6-0.2c-0.1,0-0.2-0.1-0.3-0.1l-0.2-0.1
			c-1-0.5-2.2-1.3-3.1-2.5c-0.4-0.6-0.8-1.3-1-2.2c0-0.1,0-0.2-0.1-0.3l-0.1-0.2c-0.4-1.2-0.4-2.5-0.3-3.8c0.1-0.6,0.2-1.1,0.3-1.6
			c0.1-0.4,0.1-0.7,0.2-1.1c0.1-0.4,0.2-0.7,0.3-1.1c0-0.1,0.1-0.2,0.1-0.4l0.8-2.2c0.1-0.2,0.1-0.3,0.2-0.5l0.1-0.3
			c0.1-0.1,0.1-0.3,0.2-0.4c0.2-0.6,0.5-1.2,0.7-1.7c0.1-0.1,0.1-0.3,0.2-0.4c0-0.2,0.1-0.3,0.2-0.4c0-0.1,0.1-0.1,0.1-0.2
			c0.1-0.2,0.2-0.4,0.3-0.6c0.2-0.5,0.5-0.9,0.9-1.2l0.1-0.1c0.4-0.6,0.9-1.1,1.3-1.7l0.3-0.4c0.2-0.2,0.5-0.5,0.8-0.8
			c0.3-0.3,0.7-0.6,1.1-0.9c0.6-0.4,1.2-0.8,1.9-1c0.3-0.1,0.7-0.1,0.9-0.1c0.1,0,0.2,0,0.4,0c1,0,1.8,0.4,2.5,1.2
			c0.3,0.3,0.5,0.6,0.7,0.9l0.5,0.8l-0.1,0.5c0.3,0,0.6,0.1,1,0.2l0.3,0.1c0.5,0.1,1,0.3,1.5,0.5c0.3,0.1,0.5,0.3,0.8,0.4
			c0.8,0.5,1.4,0.9,1.8,1.4l0.2,0.2c0.4,0.4,0.7,0.7,1.1,1.2c0.2,0.3,0.5,0.6,0.6,1.1c0.5,1,0.6,2.1,0.7,3.2c0,0.2,0,0.3,0,0.5
			l0,0.2c0,0.4-0.1,0.8-0.1,1.2c-0.1,0.5-0.2,0.9-0.3,1.3c0,0.1-0.1,0.3-0.1,0.4c-0.1,0.2-0.1,0.4-0.2,0.6c-0.2,0.4-0.3,0.8-0.5,1.2
			c-0.2,0.3-0.3,0.6-0.5,0.8l-0.2,0.3c-0.1,0.1-0.1,0.2-0.2,0.3c-0.1,0.1-0.2,0.2-0.2,0.3c-0.2,0.3-0.4,0.7-0.8,1
			c-0.4,0.6-0.9,1.1-1.6,1.6c-0.3,0.2-0.5,0.4-0.8,0.6c-0.1,0.1-0.3,0.3-0.4,0.4c-0.6,0.5-1.1,0.9-1.7,1.3c0,0-0.1,0.1-0.1,0.1
			l-0.1,0.1c-0.2,0.1-0.3,0.2-0.4,0.3c-0.6,0.4-1.2,0.7-1.8,1.1c-0.3,0.2-0.7,0.4-1.1,0.5c-0.4,0.2-0.8,0.3-1.1,0.5
			c-0.1,0-0.3,0.1-0.4,0.1c-0.6,0.2-1.4,0.4-2.1,0.5C180.3,38.5,180,38.6,179.7,38.6z M177.8,36.8c0.2,0,0.4,0.1,0.5,0.2
			c0.1,0,0.2,0.1,0.3,0.1c0.6,0.1,1.2,0.1,1.8,0c0.7-0.1,1.3-0.2,1.8-0.4c0.1-0.1,0.3-0.1,0.4-0.2c0.3-0.1,0.6-0.2,0.8-0.3
			c0.1-0.1,0.3-0.1,0.5-0.2c0.2,0,0.4-0.2,0.7-0.3c0.6-0.3,1.2-0.7,1.8-1.1c0.1,0,0.1-0.1,0.2-0.1l0.2-0.1c0.1-0.1,0.2-0.1,0.2-0.2
			c0.6-0.3,1.1-0.8,1.6-1.2c0.1-0.1,0.3-0.2,0.4-0.4c0.3-0.2,0.5-0.5,0.8-0.7c0.6-0.4,1-0.8,1.3-1.3c0.1-0.1,0.2-0.3,0.4-0.4
			c0.2-0.1,0.3-0.3,0.4-0.5c0.1-0.1,0.2-0.3,0.3-0.4l0.3-0.5c0.2-0.2,0.3-0.5,0.5-0.7c0.2-0.3,0.3-0.6,0.4-1
			c0.1-0.1,0.1-0.3,0.1-0.4c0-0.2,0.1-0.4,0.2-0.5c0.1-0.3,0.2-0.6,0.2-1c0-0.4,0.1-0.7,0.1-1.1l0-0.2c0-0.1,0-0.2,0-0.3
			c0-0.9-0.1-1.8-0.5-2.6l-0.1-0.2c0-0.2-0.2-0.4-0.3-0.6c-0.3-0.4-0.6-0.7-1-1.1l-0.3-0.3c-0.4-0.4-0.9-0.7-1.5-1.1
			c-0.2-0.1-0.4-0.3-0.7-0.4c-0.4-0.2-0.9-0.3-1.3-0.4l-0.3-0.1c-0.4-0.1-0.7-0.2-1.1-0.2L187,16v0.7c-0.3,0-0.5-0.1-0.7-0.2
			c-0.1,0.2-0.3,0.3-0.5,0.3c-0.3,0.1-0.6,0.1-0.9,0.2c-0.3,0-0.4,0.1-0.6,0.2c-0.2,0.2-0.4,0.3-0.7,0.3c0.3,0,0.5,0.1,0.7,0.1
			c0.1,0,0.2,0,0.3,0.1c0.5-0.1,0.8-0.1,1.2,0c0.1,0,0.3,0,0.4,0l0.2,0c0.5,0,1,0,1.4,0.1c0.1,0,0.3,0.1,0.4,0.1
			c0.3,0.1,0.7,0.1,1,0.3l0.2,0.1c0.2,0.1,0.4,0.2,0.5,0.3c0.8,0.5,1.4,0.9,1.9,1.4c0.4,0.4,0.8,1,0.9,1.6c0.2,0.7,0.3,1.4,0.2,2
			c0,0.5-0.1,1-0.2,1.5c0,0.2-0.1,0.4-0.1,0.6l-0.1,0.2c-0.1,0.3-0.2,0.5-0.3,0.9c0,0.2-0.1,0.3-0.2,0.4c-0.4,0.7-0.9,1.4-1.4,2.1
			c-0.5,0.7-1.2,1.5-2,2.2c-0.1,0.1-0.2,0.2-0.3,0.3c-0.1,0.1-0.2,0.2-0.3,0.2c-0.9,0.7-1.7,1.4-2.6,2l-0.4,0.3
			c-0.4,0.3-0.9,0.6-1.3,0.8c-0.6,0.4-1.5,0.8-2.4,1.1c-0.7,0.2-1.3,0.3-2,0.3c-0.8-0.1-1.6-0.4-2.4-0.9c-0.5-0.3-0.9-0.7-1.1-1.2
			c-0.4-0.7-0.6-1.5-0.7-2.3c0-0.7,0-1.4,0.1-2.1c0.1-0.4,0.1-0.7,0.2-1.1l0.1-0.2c0-0.2,0.1-0.4,0.2-0.6l0.1-0.5
			c0-0.2,0.1-0.3,0.1-0.5c0.2-0.7,0.5-1.5,0.7-2.2l0.2-0.6c0-0.1,0.1-0.1,0.1-0.2l0.3-0.6c0.3-0.6,0.6-1.2,0.8-1.8
			c0.2-0.3,0.3-0.7,0.5-1l0.2-0.4c0.1-0.1,0.1-0.2,0.2-0.4l0.2-0.3c0.3-0.5,0.6-0.9,0.8-1.4c0.4-0.7,0.9-1.3,1.5-1.8
			c0.1-0.1,0.1-0.1,0.2-0.2l0.2-0.2c0.6-0.6,1.2-1,1.8-1.4c0.3-0.2,0.6-0.2,0.9-0.2l0,0c0.2,0,0.5,0,0.7,0.2
			c0.1,0.1,0.3,0.2,0.4,0.4c0.2,0.2,0.3,0.3,0.5,0.4c0,0,0,0,0,0l0-0.2l0,0c-0.1-0.1-0.1-0.3-0.2-0.4c-0.1-0.2-0.3-0.4-0.5-0.6
			c-0.4-0.5-0.9-0.7-1.4-0.7c-0.2,0-0.3,0-0.4,0c-0.2,0-0.3,0-0.4,0.1c-0.6,0.2-1.1,0.5-1.5,0.8c-0.4,0.3-0.7,0.6-1,0.9
			c-0.2,0.2-0.5,0.4-0.6,0.6l-0.4,0.4c-0.4,0.5-0.9,1-1.2,1.5c-0.1,0.1-0.2,0.2-0.3,0.4c-0.3,0.2-0.5,0.5-0.6,0.8l-0.1,0.1l-0.1,0.1
			l0,0c0,0,0,0.1,0,0.1l-0.1,0.1c0,0.1-0.1,0.2-0.2,0.3c0,0.1-0.1,0.1-0.1,0.2c-0.1,0.2-0.2,0.4-0.3,0.6c-0.2,0.5-0.5,1-0.7,1.5
			c-0.1,0.2-0.1,0.3-0.2,0.5l-0.1,0.2c-0.1,0.1-0.1,0.3-0.2,0.4l-0.7,2.2c0,0.2-0.1,0.3-0.2,0.5c-0.1,0.3-0.2,0.6-0.3,0.9
			c-0.1,0.4-0.1,0.8-0.2,1.2c-0.1,0.5-0.2,1-0.3,1.5c-0.2,1.2-0.1,2.2,0.2,3.2l0.1,0.2c0,0.1,0.1,0.3,0.1,0.4
			c0.1,0.6,0.5,1.2,0.8,1.7C176,35.7,177,36.3,177.8,36.8z M181.8,17.9c-0.2,0.3-0.4,0.5-0.6,0.9c-0.3,0.5-0.6,0.9-0.8,1.4l-0.2,0.3
			c0,0.1-0.1,0.2-0.1,0.3l-0.2,0.4c-0.2,0.3-0.3,0.7-0.5,1c-0.3,0.6-0.6,1.2-0.8,1.8l-0.3,0.6l-0.2,0.7c-0.2,0.7-0.5,1.5-0.7,2.2
			c0,0.1-0.1,0.3-0.1,0.4l-0.1,0.5c-0.1,0.2-0.1,0.4-0.1,0.6l-0.1,0.2c-0.1,0.3-0.2,0.7-0.2,1c-0.1,0.6-0.1,1.3-0.1,1.9
			c0,0.6,0.2,1.1,0.5,1.6c0.2,0.3,0.4,0.5,0.7,0.7c0.6,0.4,1.2,0.6,1.7,0.7c0.5,0,0.9,0,1.4-0.2c0.8-0.3,1.6-0.7,2.2-1
			c0.4-0.2,0.8-0.5,1.2-0.8l0.4-0.3c0.8-0.5,1.7-1.2,2.5-1.9c0.1-0.1,0.2-0.1,0.2-0.2c0.1-0.1,0.3-0.3,0.4-0.4
			c0.7-0.6,1.3-1.3,1.8-1.9c0.5-0.6,0.9-1.3,1.3-1.9l0.1-0.1c0.1-0.4,0.2-0.7,0.4-1c0-0.2,0.1-0.4,0.1-0.6c0.1-0.4,0.2-0.8,0.2-1.2
			c0-0.5,0-1-0.2-1.5c-0.1-0.4-0.3-0.7-0.6-1c-0.4-0.4-0.9-0.8-1.6-1.2c-0.1-0.1-0.2-0.1-0.3-0.2l-0.2-0.1c-0.2-0.1-0.5-0.1-0.7-0.2
			c-0.1,0-0.3-0.1-0.4-0.1c-0.3-0.1-0.7-0.1-1-0.1c-0.3,0-0.6,0-0.9,0c-0.2,0-0.4,0-0.6,0c-0.2,0.1-0.5,0.1-0.6,0
			c-0.1,0-0.2,0-0.3-0.1c-0.2,0-0.3-0.1-0.5-0.1c-0.2,0-0.4-0.1-0.6-0.1c-0.2-0.1-0.3-0.1-0.4-0.1l-0.6-0.1l-0.2-0.5
			C181.8,18,181.8,17.9,181.8,17.9z"/>
	</g>
</g>
</svg>
